<svg width="10" height="17" viewBox="0 0 10 17" fill="none" xmlns="http://www.w3.org/2000/svg">
<path fill-rule="evenodd" clip-rule="evenodd" d="M0.00337124 8.48746C0.00271988 8.22089 0.11891 7.96256 0.331772 7.75731L7.47092 0.912163V0.912163C7.9756 0.427003 8.87696 0.360602 9.48416 0.763852C10.0914 1.1671 10.1745 1.8873 9.66978 2.37246L3.2731 8.48746L9.44133 14.6025H9.44133C9.93844 15.0916 9.84518 15.8101 9.23304 16.2073C9.23108 16.2085 9.22912 16.2098 9.22715 16.2111C8.63829 16.6301 7.73574 16.5884 7.21127 16.1179C7.18731 16.0964 7.16438 16.0742 7.14253 16.0513L0.246109 9.2062C0.0668936 8.99504 -0.018569 8.74198 0.00337791 8.48746L0.00337124 8.48746Z" fill="#313131"/>
</svg>
