<svg width="16" height="20" viewBox="0 0 16 20" fill="none" xmlns="http://www.w3.org/2000/svg">
<mask id="mask0_0_789" style="mask-type:alpha" maskUnits="userSpaceOnUse" x="0" y="0" width="16" height="20">
<path fill-rule="evenodd" clip-rule="evenodd" d="M0 0H16V19.6129H0V0Z" fill="white"/>
</mask>
<g mask="url(#mask0_0_789)">
<path fill-rule="evenodd" clip-rule="evenodd" d="M10.8899 3.13149C11.5761 2.30245 12.038 1.14833 11.912 0C10.9229 0.0396786 9.72684 0.657867 9.01738 1.48646C8.38157 2.22022 7.82474 3.39464 7.97498 4.52025C9.07745 4.60538 10.2037 3.96107 10.8899 3.13149M13.3627 10.4197C13.3903 13.3878 15.9714 14.3755 16 14.3881C15.9782 14.4577 15.5876 15.7956 14.6402 17.1776C13.8211 18.3724 12.9711 19.5627 11.6321 19.5874C10.3164 19.6116 9.8933 18.8086 8.38904 18.8086C6.88524 18.8086 6.41518 19.5628 5.16969 19.6116C3.87719 19.6605 2.89293 18.3197 2.06715 17.1292C0.379706 14.6942 -0.909851 10.2485 0.821698 7.24757C1.68186 5.75729 3.21913 4.81358 4.88766 4.78938C6.15687 4.76522 7.35481 5.64165 8.13073 5.64165C8.90616 5.64165 10.3619 4.58766 11.8924 4.74245C12.533 4.76907 14.3315 5.00077 15.4863 6.68793C15.3932 6.74551 13.3404 7.93832 13.3627 10.4197" fill="#585858"/>
</g>
</svg>
