<svg width="18" height="14" viewBox="0 0 18 14" fill="none" xmlns="http://www.w3.org/2000/svg">
<rect x="1" y="6" width="15" height="6" fill="#535B72"/>
<path fill-rule="evenodd" clip-rule="evenodd" d="M16.5 13V6V13Z" fill="#535B72"/>
<path d="M16.5 13V6" stroke="#535B72" stroke-width="2" stroke-linecap="round"/>
<path fill-rule="evenodd" clip-rule="evenodd" d="M1.5 13V6V13Z" fill="#535B72"/>
<path d="M1.5 13V6" stroke="#535B72" stroke-width="2" stroke-linecap="round"/>
<path d="M14.8333 0H3.16667C2.52208 0 2 0.497222 2 1.11111V5H3.16667V3.88889C3.16667 3.58222 3.428 3.33333 3.75 3.33333H7.83333C8.15533 3.33333 8.41667 3.58222 8.41667 3.88889V5H9.58333V3.88889C9.58333 3.58222 9.84467 3.33333 10.1667 3.33333H14.25C14.572 3.33333 14.8333 3.58222 14.8333 3.88889V5H16V1.11111C16 0.497222 15.4779 0 14.8333 0Z" fill="#535B72"/>
</svg>
