<svg width="26" height="24" viewBox="0 0 26 24" fill="none" xmlns="http://www.w3.org/2000/svg">
<path fill-rule="evenodd" clip-rule="evenodd" d="M26 19.6364C23.8333 17.4545 22.75 14.1818 21.6667 8.72727C20.728 4.00173 17.7856 0 13 0C8.21437 0 5.27177 4.00173 4.33333 8.72727C3.25 14.1818 2.16667 17.4545 0 19.6364H9.93877C9.81879 19.9781 9.75 20.3444 9.75 20.7273C9.75 22.5346 11.2052 24 13 24C14.7948 24 16.25 22.5346 16.25 20.7273C16.25 20.3444 16.1812 19.9781 16.0612 19.6364H26ZM6.45802 9.15491C6.78275 7.51909 8.21492 2.18182 13 2.18182C17.7851 2.18182 19.2173 7.51936 19.542 9.15518C20.2136 12.5367 20.9043 15.2485 21.9318 17.4545H4.06819C5.09573 15.2485 5.78635 12.5365 6.45802 9.15491ZM13 21.8182C13.5975 21.8182 14.0833 21.3289 14.0833 20.7273C14.0833 20.1256 13.5975 19.6364 13 19.6364C12.4025 19.6364 11.9167 20.1256 11.9167 20.7273C11.9167 21.3289 12.4025 21.8182 13 21.8182Z" fill="#535B72"/>
</svg>
