<svg width="16" height="16" viewBox="0 0 16 16" fill="none" xmlns="http://www.w3.org/2000/svg">
<path fill-rule="evenodd" clip-rule="evenodd" d="M0 14.6667C0 15.4034 0.596706 16 1.33327 16H14.6667C15.4034 16 16 15.4034 16 14.6667V3C16 2.26332 15.4034 1.66662 14.6667 1.66662H13.3333V0.83331C13.3333 0.373381 12.9599 0 12.5 0C12.0401 0 11.6666 0.373381 11.6666 0.83331V1.66662H10.3333V0.83331C10.3333 0.373381 9.95986 0 9.49993 0C9.04 0 8.66665 0.373381 8.66665 0.83331V1.66662H7.33338V0.83331C7.33338 0.373381 6.96 0 6.50007 0C6.04003 0 5.66665 0.373381 5.66665 0.83331V1.66662H4.33338V0.83331C4.33338 0.373381 3.96 0 3.5 0C3.04007 0 2.66669 0.373381 2.66669 0.83331V1.66662H1.33331C0.596706 1.66662 3.66887e-05 2.26332 3.66887e-05 3V14.6667H0ZM2.4001 3.33328H2.66669V4.49994C2.66669 4.95994 3.04007 5.33332 3.5 5.33332C3.96004 5.33332 4.33338 4.95994 4.33338 4.49994V3.33328H5.66665V4.49994C5.66665 4.95994 6.04003 5.33332 6.50007 5.33332C6.96 5.33332 7.33338 4.95994 7.33338 4.49994V3.33328H8.66673V4.49994C8.66673 4.95994 9.04007 5.33332 9.5 5.33332C9.95993 5.33332 10.3334 4.95994 10.3334 4.49994V3.33328H11.6667V4.49994C11.6667 4.95994 12.0401 5.33332 12.5001 5.33332C12.96 5.33332 13.3334 4.95994 13.3334 4.49994V3.33328H13.6C14.0067 3.33328 14.3334 3.66013 14.3334 4.06672V7.59991C14.3334 8.00649 14.0067 8.33335 13.6 8.33335H2.4001C1.99337 8.33335 1.66666 8.00649 1.66666 7.59991V4.06672C1.66662 3.66013 1.99334 3.33328 2.4001 3.33328Z" fill="#535B72"/>
</svg>
