<svg width="23" height="19" viewBox="0 0 23 19" fill="none" xmlns="http://www.w3.org/2000/svg">
<path fill-rule="evenodd" clip-rule="evenodd" d="M8.62497 4.38481H12.9375C13.1621 4.39151 13.3769 4.29098 13.518 4.1131C13.6591 3.93523 13.7103 3.70049 13.6562 3.47868L12.9375 0.555682C12.8564 0.221596 12.557 -0.00970786 12.2187 0.000313355H9.34372C9.00541 -0.00970786 8.70606 0.221596 8.62497 0.555682L7.90622 3.47868C7.85218 3.70049 7.90331 3.93523 8.0444 4.1131C8.1855 4.29098 8.40031 4.39151 8.62497 4.38481ZM12.0175 2.92331H9.54497L9.90435 1.46181H11.6581L12.0175 2.92331Z" fill="white"/>
<path fill-rule="evenodd" clip-rule="evenodd" d="M20.5994 9.20778L18.4431 8.84241L16.2869 4.5383C15.8076 3.56412 14.8353 2.9417 13.7641 2.92334H7.245C6.04452 2.92243 4.96985 3.67997 4.54969 4.82329L3.11219 8.76933H2.15625C0.965386 8.76933 0 9.75083 0 10.9616V14.6153C0 15.8261 0.965386 16.8076 2.15625 16.8076H2.97563C3.33756 18.2328 4.68538 19.162 6.12159 18.9765C7.55781 18.7911 8.63433 17.5487 8.63433 16.0768C8.63433 14.6049 7.55781 13.3626 6.12159 13.1771C4.68538 12.9917 3.33756 13.9209 2.97563 15.3461H2.15625C1.7593 15.3461 1.4375 15.0189 1.4375 14.6153V10.9616C1.4375 10.558 1.7593 10.2308 2.15625 10.2308H17.9112L20.3622 10.6474C21.0623 10.7664 21.5722 11.3872 21.5625 12.1089V12.4231H20.8438C20.4468 12.4231 20.125 12.7502 20.125 13.1538C20.125 13.5574 20.4468 13.8846 20.8438 13.8846H21.5625V14.6153C21.5625 15.0189 21.2407 15.3461 20.8438 15.3461H20.0244C19.6841 14.0731 18.5474 13.1896 17.25 13.1896C15.9526 13.1896 14.8159 14.0731 14.4756 15.3461H10.7812C10.3843 15.3461 10.0625 15.6732 10.0625 16.0768C10.0625 16.4804 10.3843 16.8076 10.7812 16.8076H14.4756C14.8159 18.0805 15.9526 18.964 17.25 18.964C18.5474 18.964 19.6841 18.0805 20.0244 16.8076H20.8438C22.0346 16.8076 23 15.8261 23 14.6153V12.0869C22.9982 10.6602 21.9835 9.4432 20.5994 9.20778ZM5.75 14.6153C6.54391 14.6153 7.1875 15.2697 7.1875 16.0768C7.1875 16.884 6.54391 17.5383 5.75 17.5383C4.95609 17.5383 4.3125 16.884 4.3125 16.0768C4.3125 15.2697 4.95609 14.6153 5.75 14.6153ZM7.245 4.38484C6.64608 4.3859 6.11056 4.7644 5.90094 5.33481L4.62875 8.76933H10.0625V4.38484H7.245ZM11.5 8.76933V4.38484H13.7641C14.307 4.3879 14.8019 4.70166 15.0434 5.19597L16.8044 8.76933H11.5ZM15.8125 16.0768C15.8125 16.884 16.4561 17.5383 17.25 17.5383C18.0439 17.5383 18.6875 16.884 18.6875 16.0768C18.6875 15.2697 18.0439 14.6153 17.25 14.6153C16.4561 14.6153 15.8125 15.2697 15.8125 16.0768Z" fill="white"/>
</svg>
