<svg width="18" height="17" viewBox="0 0 18 17" fill="none" xmlns="http://www.w3.org/2000/svg">
<path fill-rule="evenodd" clip-rule="evenodd" d="M5.06253 5.66666C5.06253 5.97963 5.31437 6.23333 5.62503 6.23333H12.375C12.5242 6.23333 12.6672 6.17363 12.7727 6.06736C12.8782 5.96109 12.9375 5.81695 12.9375 5.66666V5.1C12.9375 2.90927 11.1746 1.13333 9.00001 1.13333C6.8254 1.13333 5.06253 2.90927 5.06253 5.1V5.66666ZM9.00001 2.26666C10.5533 2.26666 11.8125 3.53519 11.8125 5.1H6.18752C6.18752 3.53519 7.44672 2.26666 9.00001 2.26666Z" fill="white"/>
<path d="M9 2.26667C8.68934 2.26667 8.4375 2.01296 8.4375 1.7V0.566667C8.4375 0.253705 8.68934 0 9 0C9.31065 0 9.56249 0.253705 9.56249 0.566667V1.7C9.56249 2.01296 9.31065 2.26667 9 2.26667Z" fill="white"/>
<path fill-rule="evenodd" clip-rule="evenodd" d="M16.875 7.93333C16.875 7.62037 17.1268 7.36667 17.4374 7.36667C17.7481 7.36667 17.9999 7.62037 17.9999 7.93333V8.993C18.005 10.0441 17.3155 10.9703 16.3125 11.2597V16.4333C16.3125 16.7463 16.0606 17 15.75 17C15.4393 17 15.1875 16.7463 15.1875 16.4333V15.3H2.81254V16.4333C2.81254 16.7463 2.5607 17 2.25004 17C1.93938 17 1.68754 16.7463 1.68754 16.4333V11.237C0.684527 10.9476 -0.0049947 10.0214 5.48022e-05 8.97033V5.66667C5.48022e-05 5.3537 0.251893 5.1 0.562551 5.1H2.25004V3.86467C1.57745 3.62511 1.12705 2.98534 1.12505 2.26667V0.566667C1.12505 0.253705 1.37689 0 1.68754 0H3.93753C4.24819 0 4.50003 0.253705 4.50003 0.566667V2.26667C4.49802 2.98534 4.04763 3.62511 3.37503 3.86467V5.1H14.625V3.86467C13.9524 3.62511 13.502 2.98534 13.5 2.26667V0.566667C13.5 0.253705 13.7518 0 14.0625 0H16.3125C16.6231 0 16.875 0.253705 16.875 0.566667V2.26667C16.8729 2.98534 16.4226 3.62511 15.75 3.86467V5.1H17.4374C17.7481 5.1 17.9999 5.3537 17.9999 5.66667C17.9999 5.97963 17.7481 6.23333 17.4374 6.23333H1.12505V8.97033C1.07288 9.46434 1.34615 9.93499 1.79915 10.1313C2.25215 10.3276 2.77926 10.2039 3.09941 9.826C3.31297 9.58205 3.62028 9.4423 3.94316 9.4423C4.26603 9.4423 4.57334 9.58205 4.7869 9.826C5.00751 10.0574 5.3122 10.1881 5.63065 10.1881C5.94909 10.1881 6.25378 10.0574 6.47439 9.826C6.69419 9.59316 6.99918 9.46135 7.31814 9.46135C7.63709 9.46135 7.94208 9.59316 8.16188 9.826C8.38168 10.0588 8.68667 10.1906 9.00563 10.1906C9.32458 10.1906 9.62957 10.0588 9.84937 9.826C10.0692 9.59316 10.3742 9.46135 10.6931 9.46135C11.0121 9.46135 11.3171 9.59316 11.5369 9.826C11.7567 10.0588 12.0617 10.1906 12.3806 10.1906C12.6996 10.1906 13.0045 10.0588 13.2243 9.826C13.4379 9.58205 13.7452 9.4423 14.0681 9.4423C14.391 9.4423 14.6983 9.58205 14.9118 9.826C15.2342 10.1935 15.7547 10.3104 16.2015 10.1156C16.6484 9.92088 16.9201 9.45868 16.875 8.97033V7.93333ZM15.75 1.13333H14.625V2.26667C14.625 2.57963 14.8768 2.83333 15.1875 2.83333C15.4981 2.83333 15.75 2.57963 15.75 2.26667V1.13333ZM2.25004 1.13333H3.37503V2.26667C3.37503 2.57963 3.1232 2.83333 2.81254 2.83333C2.50188 2.83333 2.25004 2.57963 2.25004 2.26667V1.13333ZM2.81254 11.254V14.1667H15.1875V11.2313C14.7557 11.127 14.3643 10.8963 14.0625 10.5683C13.6297 11.0464 13.0172 11.3188 12.375 11.3188C11.7328 11.3188 11.1202 11.0464 10.6875 10.5683C10.2604 11.0562 9.64575 11.3357 9 11.3357C8.35425 11.3357 7.73963 11.0562 7.31251 10.5683C6.88539 11.0562 6.27077 11.3357 5.62502 11.3357C4.97927 11.3357 4.36465 11.0562 3.93753 10.5683C3.63673 10.9023 3.24576 11.1406 2.81254 11.254Z" fill="white"/>
</svg>
