<svg width="16" height="12" viewBox="0 0 16 12" fill="none" xmlns="http://www.w3.org/2000/svg">
<path fill-rule="evenodd" clip-rule="evenodd" d="M15.4667 12C15.7611 12 16 11.7556 16 11.4545V0.545455C16 0.502726 15.9889 0.463786 15.9778 0.424846L15.9712 0.401455C15.9697 0.396291 15.9703 0.390883 15.971 0.385462C15.9717 0.37943 15.9724 0.373382 15.9701 0.367636C15.9696 0.365262 15.9677 0.363534 15.9658 0.361749C15.9642 0.360253 15.9626 0.358717 15.9616 0.356727C15.9275 0.262909 15.8677 0.186545 15.792 0.125455C15.7755 0.1128 15.761 0.103204 15.7437 0.0917388L15.7419 0.0905455C15.6619 0.0381818 15.5701 0 15.4667 0H0.533333C0.429867 0 0.338133 0.0381818 0.257067 0.0905455C0.238933 0.101455 0.222933 0.111273 0.205867 0.125455C0.1312 0.186545 0.0704 0.262909 0.0362667 0.356727C0.0352 0.358909 0.0336 0.360545 0.032 0.362182C0.0304 0.363818 0.0288 0.365455 0.0277333 0.367636C0.0254863 0.373382 0.0261978 0.37943 0.0269074 0.385461C0.0275451 0.390883 0.0281814 0.396291 0.0266667 0.401455C0.0240649 0.412897 0.0211458 0.424274 0.0182189 0.435681C0.00914655 0.47104 0 0.506688 0 0.545455V11.4545C0 11.7556 0.238933 12 0.533333 12H15.4667ZM1.06667 10.9091V1.668L7.6704 6.97527C7.76747 7.05273 7.88373 7.09091 8 7.09091C8.11627 7.09091 8.23253 7.05273 8.3296 6.97527L14.9333 1.668V10.9091H1.06667ZM8 5.85164L13.9253 1.09091H2.07467L8 5.85164Z" fill="#5B5B5B"/>
</svg>
