<svg width="17" height="13" viewBox="0 0 17 13" fill="none" xmlns="http://www.w3.org/2000/svg">
<path fill-rule="evenodd" clip-rule="evenodd" d="M16.4333 12.75C16.7461 12.75 17 12.4904 17 12.1705V0.579545C17 0.534149 16.9882 0.492777 16.9764 0.451406L16.9694 0.426545C16.9678 0.421063 16.9685 0.415321 16.9691 0.409565V0.409552V0.409541C16.9699 0.403136 16.9707 0.396714 16.9683 0.390614C16.9677 0.388092 16.9657 0.386256 16.9637 0.384359C16.962 0.382769 16.9602 0.381137 16.9592 0.379023C16.9229 0.279341 16.8595 0.198205 16.779 0.133295C16.7615 0.119871 16.7461 0.109685 16.7277 0.0975278L16.7277 0.0974909L16.7257 0.0962045C16.6407 0.0405682 16.5433 0 16.4333 0H0.566667C0.456733 0 0.359267 0.0405682 0.273133 0.0962045C0.253867 0.107795 0.236867 0.118227 0.218733 0.133295C0.1394 0.198205 0.0748 0.279341 0.0385333 0.379023C0.0374 0.381341 0.0357 0.38308 0.034 0.384818C0.0323 0.386557 0.0306 0.388295 0.0294667 0.390614C0.0270792 0.396718 0.0278351 0.403144 0.0285891 0.409553C0.0292667 0.415313 0.0299427 0.421059 0.0283333 0.426545C0.025569 0.438702 0.0224674 0.45079 0.0193577 0.46291L0.0193576 0.462911C0.00971821 0.50048 0 0.538356 0 0.579545V12.1705C0 12.4904 0.253867 12.75 0.566667 12.75H16.4333ZM1.13333 11.5909V1.77225L8.1498 7.41123C8.25293 7.49352 8.37647 7.53409 8.5 7.53409C8.62353 7.53409 8.74707 7.49352 8.8502 7.41123L15.8667 1.77225V11.5909H1.13333ZM8.5 6.21736L14.7957 1.15909H2.20433L8.5 6.21736Z" fill="#4DB7FE"/>
</svg>
