<svg width="14" height="10" viewBox="0 0 14 10" fill="none" xmlns="http://www.w3.org/2000/svg">
<path d="M0 0.833333C0 0.37309 0.284918 0 0.636364 0H13.3636C13.7151 0 14 0.37309 14 0.833333C14 1.29358 13.7151 1.66667 13.3636 1.66667H0.636364C0.284918 1.66667 0 1.29358 0 0.833333Z" fill="#949AA9"/>
<path d="M2.47058 4.99996C2.47058 4.53972 2.75421 4.16663 3.10407 4.16663H10.0724C10.4223 4.16663 10.7059 4.53972 10.7059 4.99996C10.7059 5.46019 10.4223 5.83329 10.0724 5.83329H3.10407C2.75421 5.83329 2.47058 5.46019 2.47058 4.99996Z" fill="#949AA9"/>
<path d="M5.59997 8.33337C5.23617 8.33337 4.94116 8.70647 4.94116 9.16671C4.94116 9.62694 5.23617 10 5.59997 10H7.57647C7.94027 10 8.23528 9.62694 8.23528 9.16671C8.23528 8.70647 7.94027 8.33337 7.57647 8.33337H5.59997Z" fill="#949AA9"/>
</svg>
