<svg width="18" height="18" viewBox="0 0 18 18" fill="none" xmlns="http://www.w3.org/2000/svg">
<path fill-rule="evenodd" clip-rule="evenodd" d="M3.61421 8.82218C3.61421 8.24915 3.70933 7.69969 3.87929 7.18442L0.905931 4.91394C0.326422 6.09047 0 7.41628 0 8.82218C0 10.227 0.326146 11.5518 0.90469 12.7277L3.8764 10.4528C3.70809 9.93984 3.61421 9.39245 3.61421 8.82218Z" fill="#FBBC05"/>
<path fill-rule="evenodd" clip-rule="evenodd" d="M8.83483 3.60911C10.0797 3.60911 11.2041 4.05022 12.0876 4.77199L14.6576 2.20555C13.0915 0.842108 11.0837 0 8.83483 0C5.34344 0 2.34279 1.99658 0.906006 4.91397L3.87923 7.18445C4.56433 5.10489 6.51721 3.60911 8.83483 3.60911Z" fill="#EA4335"/>
<path fill-rule="evenodd" clip-rule="evenodd" d="M8.83483 14.0353C6.51735 14.0353 4.56447 12.5395 3.87937 10.46L0.906006 12.73C2.34279 15.6478 5.34344 17.6444 8.83483 17.6444C10.9897 17.6444 13.047 16.8792 14.5911 15.4456L11.7688 13.2638C10.9724 13.7654 9.96959 14.0353 8.83483 14.0353Z" fill="#34A853"/>
<path fill-rule="evenodd" clip-rule="evenodd" d="M17.2678 8.82225C17.2678 8.30091 17.1874 7.73946 17.0669 7.21826H8.83472V10.6268H13.5733C13.3364 11.789 12.6915 12.6824 11.7687 13.2638L14.5909 15.4457C16.2128 13.9404 17.2678 11.6979 17.2678 8.82225Z" fill="#4285F4"/>
</svg>
