<svg width="21" height="19" viewBox="0 0 21 19" fill="none" xmlns="http://www.w3.org/2000/svg">
<path fill-rule="evenodd" clip-rule="evenodd" d="M19.0261 7.59814e-06C18.1941 0.00226136 17.4533 0.508552 17.176 1.26462H0.656073C0.293734 1.26462 0 1.54771 0 1.89692C0 2.24613 0.293734 2.52922 0.656073 2.52922H5.90466V5.22916C3.79723 6.69051 2.57282 9.05925 2.63184 11.5608C2.69086 14.0623 4.02572 16.3749 6.19989 17.7425C6.50426 17.9345 6.91255 17.8524 7.11183 17.5591C7.31112 17.2657 7.22594 16.8723 6.92157 16.6802C4.09836 14.9002 3.13601 11.3469 4.69645 8.46415C6.25689 5.58144 9.83138 4.30919 12.9613 5.52247C16.0913 6.73574 17.7563 10.039 16.8112 13.1602C15.8661 16.2814 12.6189 18.2031 9.30312 17.6033C8.94078 17.5405 8.59417 17.7726 8.52895 18.1218C8.46373 18.4711 8.70459 18.8051 9.06693 18.868C12.7007 19.5283 16.3216 17.6622 17.7697 14.383C19.2178 11.1038 18.1027 7.29521 15.0897 5.22916V2.52922H17.176C17.5099 3.43936 18.4997 3.96267 19.4756 3.74495C20.4514 3.52722 21.1019 2.63792 20.9868 1.67896C20.8717 0.720007 20.0278 -0.00270276 19.0261 7.59814e-06ZM13.7775 4.49569C11.6983 3.56021 9.29601 3.56021 7.2168 4.49569V2.52922H13.7775V4.49569ZM18.37 1.89692C18.37 2.24613 18.6638 2.52922 19.0261 2.52922C19.2001 2.52922 19.367 2.46261 19.49 2.34403C19.6131 2.22545 19.6822 2.06462 19.6822 1.89692C19.6822 1.54771 19.3885 1.26462 19.0261 1.26462C18.6638 1.26462 18.37 1.54771 18.37 1.89692Z" fill="white"/>
<path d="M13.1215 7.58765C12.7591 7.58765 12.4654 7.87074 12.4654 8.21995V10.7492H8.52894V8.21995C8.52894 7.87074 8.23521 7.58765 7.87287 7.58765C7.51053 7.58765 7.2168 7.87074 7.2168 8.21995V14.543C7.2168 14.8922 7.51053 15.1753 7.87287 15.1753C8.23521 15.1753 8.52894 14.8922 8.52894 14.543V12.0138H12.4654V14.543C12.4654 14.8922 12.7591 15.1753 13.1215 15.1753C13.4838 15.1753 13.7775 14.8922 13.7775 14.543V8.21995C13.7775 7.87074 13.4838 7.58765 13.1215 7.58765Z" fill="white"/>
</svg>
