<svg width="18" height="18" viewBox="0 0 18 18" fill="none" xmlns="http://www.w3.org/2000/svg">
<path d="M8.87771 12.8049C10.9117 12.8049 12.5606 11.156 12.5606 9.12195C12.5606 7.08794 10.9117 5.43903 8.87771 5.43903C6.8437 5.43903 5.19482 7.08794 5.19482 9.12195C5.19482 11.156 6.8437 12.8049 8.87771 12.8049Z" fill="#949AA9" stroke="white" stroke-width="2"/>
<mask id="path-2-outside-1_563_17" maskUnits="userSpaceOnUse" x="0.29248" y="0.53656" width="18" height="18" fill="black">
<rect fill="white" x="0.29248" y="0.53656" width="18" height="18"/>
<path fill-rule="evenodd" clip-rule="evenodd" d="M12.2314 2.53656H5.52414C4.54855 2.53656 3.6949 2.84144 3.14613 3.39022C2.59735 3.939 2.29248 4.79266 2.29248 5.76827V12.4756C2.29248 13.4512 2.59735 14.3049 3.2071 14.9146C3.81685 15.4634 4.60952 15.7683 5.58512 15.7683H12.2314C13.207 15.7683 14.0606 15.4634 14.6094 14.9146C15.2191 14.3658 15.524 13.5122 15.524 12.5366V5.82924C15.524 4.85363 15.2191 4.06095 14.6704 3.45119C14.0606 2.84144 13.2679 2.53656 12.2314 2.53656ZM8.87776 13.2683C6.56071 13.2683 4.73147 11.378 4.73147 9.12193C4.73147 6.80485 6.62169 4.97558 8.87776 4.97558C11.1338 4.97558 13.085 6.80485 13.085 9.12193C13.085 11.439 11.1948 13.2683 8.87776 13.2683ZM12.2314 4.79266C12.2314 5.34144 12.6582 5.76827 13.207 5.76827C13.7557 5.76827 14.1826 5.34144 14.1826 4.79266C14.1826 4.24388 13.7557 3.81705 13.207 3.81705C12.6582 3.81705 12.2314 4.24388 12.2314 4.79266Z"/>
</mask>
<path fill-rule="evenodd" clip-rule="evenodd" d="M12.2314 2.53656H5.52414C4.54855 2.53656 3.6949 2.84144 3.14613 3.39022C2.59735 3.939 2.29248 4.79266 2.29248 5.76827V12.4756C2.29248 13.4512 2.59735 14.3049 3.2071 14.9146C3.81685 15.4634 4.60952 15.7683 5.58512 15.7683H12.2314C13.207 15.7683 14.0606 15.4634 14.6094 14.9146C15.2191 14.3658 15.524 13.5122 15.524 12.5366V5.82924C15.524 4.85363 15.2191 4.06095 14.6704 3.45119C14.0606 2.84144 13.2679 2.53656 12.2314 2.53656ZM8.87776 13.2683C6.56071 13.2683 4.73147 11.378 4.73147 9.12193C4.73147 6.80485 6.62169 4.97558 8.87776 4.97558C11.1338 4.97558 13.085 6.80485 13.085 9.12193C13.085 11.439 11.1948 13.2683 8.87776 13.2683ZM12.2314 4.79266C12.2314 5.34144 12.6582 5.76827 13.207 5.76827C13.7557 5.76827 14.1826 5.34144 14.1826 4.79266C14.1826 4.24388 13.7557 3.81705 13.207 3.81705C12.6582 3.81705 12.2314 4.24388 12.2314 4.79266Z" fill="#949AA9"/>
<path d="M3.14613 3.39022L1.7319 1.97601L1.7319 1.97601L3.14613 3.39022ZM3.2071 14.9146L1.79288 16.3288L1.83007 16.366L1.86916 16.4012L3.2071 14.9146ZM14.6094 14.9146L13.2714 13.428L13.2324 13.4632L13.1952 13.5004L14.6094 14.9146ZM14.6704 3.45119L16.157 2.11328L16.1218 2.07418L16.0846 2.03699L14.6704 3.45119ZM5.52414 4.53656H12.2314V0.53656H5.52414V4.53656ZM4.56035 4.80442C4.64093 4.72384 4.93092 4.53656 5.52414 4.53656V0.53656C4.16617 0.53656 2.74887 0.959037 1.7319 1.97601L4.56035 4.80442ZM4.29248 5.76827C4.29248 5.17502 4.47976 4.88501 4.56035 4.80442L1.7319 1.97601C0.714944 2.99299 0.29248 4.4103 0.29248 5.76827H4.29248ZM4.29248 12.4756V5.76827H0.29248V12.4756H4.29248ZM4.62133 13.5004C4.46061 13.3397 4.29248 13.0354 4.29248 12.4756H0.29248C0.29248 13.867 0.734094 15.27 1.79288 16.3288L4.62133 13.5004ZM5.58512 13.7683C5.05668 13.7683 4.75409 13.6162 4.54504 13.428L1.86916 16.4012C2.87961 17.3106 4.16236 17.7683 5.58512 17.7683V13.7683ZM12.2314 13.7683H5.58512V17.7683H12.2314V13.7683ZM13.1952 13.5004C13.1146 13.581 12.8246 13.7683 12.2314 13.7683V17.7683C13.5893 17.7683 15.0066 17.3458 16.0236 16.3288L13.1952 13.5004ZM13.524 12.5366C13.524 13.126 13.3419 13.3646 13.2714 13.428L15.9473 16.4012C17.0964 15.367 17.524 13.8984 17.524 12.5366H13.524ZM13.524 5.82924V12.5366H17.524V5.82924H13.524ZM13.1838 4.78911C13.3719 4.99817 13.524 5.30078 13.524 5.82924H17.524C17.524 4.40649 17.0664 3.12373 16.157 2.11328L13.1838 4.78911ZM12.2314 4.53656C12.833 4.53656 13.084 4.69324 13.2561 4.8654L16.0846 2.03699C15.0372 0.989639 13.7029 0.53656 12.2314 0.53656V4.53656ZM2.73147 9.12193C2.73147 12.4634 5.43703 15.2683 8.87776 15.2683V11.2683C7.6844 11.2683 6.73147 10.2927 6.73147 9.12193H2.73147ZM8.87776 2.97558C5.53629 2.97558 2.73147 5.68121 2.73147 9.12193H6.73147C6.73147 7.92849 7.70709 6.97558 8.87776 6.97558V2.97558ZM15.085 9.12193C15.085 5.64389 12.1811 2.97558 8.87776 2.97558V6.97558C10.0865 6.97558 11.085 7.96581 11.085 9.12193H15.085ZM8.87776 15.2683C12.2611 15.2683 15.085 12.5814 15.085 9.12193H11.085C11.085 10.2966 10.1285 11.2683 8.87776 11.2683V15.2683ZM13.207 3.76827C13.7628 3.76827 14.2314 4.23689 14.2314 4.79266H10.2314C10.2314 6.44598 11.5536 7.76827 13.207 7.76827V3.76827ZM12.1826 4.79266C12.1826 4.23689 12.6511 3.76827 13.207 3.76827V7.76827C14.8603 7.76827 16.1826 6.44598 16.1826 4.79266H12.1826ZM13.207 5.81705C12.6511 5.81705 12.1826 5.34842 12.1826 4.79266H16.1826C16.1826 3.13933 14.8603 1.81705 13.207 1.81705V5.81705ZM14.2314 4.79266C14.2314 5.34842 13.7628 5.81705 13.207 5.81705V1.81705C11.5536 1.81705 10.2314 3.13933 10.2314 4.79266H14.2314Z" fill="white" mask="url(#path-2-outside-1_563_17)"/>
</svg>
