<svg width="27" height="27" viewBox="0 0 27 27" fill="none" xmlns="http://www.w3.org/2000/svg">
<path fill-rule="evenodd" clip-rule="evenodd" d="M9.74506 1.75368C10.0035 1.49525 10.3462 1.35309 10.7105 1.35309C10.7837 1.35309 10.8576 1.3586 10.9309 1.37017C11.4979 1.45668 11.9717 1.93111 12.0588 2.49866C12.1266 2.94113 11.9872 3.37313 11.6758 3.68445C11.3645 3.99578 10.9331 4.13629 10.4911 4.06686C9.92359 3.9798 9.44917 3.50537 9.36211 2.93892C9.29488 2.49645 9.43429 2.0639 9.74506 1.75368ZM10.2845 5.40364C10.4267 5.42568 10.571 5.4367 10.7132 5.4367C11.4367 5.4367 12.1189 5.15402 12.6319 4.64102C13.2507 4.02168 13.5295 3.16594 13.3956 2.29313C13.2187 1.13929 12.2891 0.209718 11.1358 0.0333914C10.2647 -0.101609 9.40729 0.176657 8.78904 0.797106C8.17025 1.41535 7.89143 2.27053 8.02533 3.1428C8.20166 4.29664 9.13068 5.22621 10.2845 5.40364Z" fill="#535B72"/>
<mask id="mask0_0_2455" style="mask-type:alpha" maskUnits="userSpaceOnUse" x="0" y="25" width="11" height="3">
<path fill-rule="evenodd" clip-rule="evenodd" d="M0 25.648H10.4632V27.0008H0V25.648Z" fill="white"/>
</mask>
<g mask="url(#mask0_0_2455)">
<path fill-rule="evenodd" clip-rule="evenodd" d="M9.78643 25.648H0.67696C0.303368 25.648 -0.000244141 25.9516 -0.000244141 26.3247C-0.000244141 26.6972 0.303368 27.0008 0.67696 27.0008H9.78643C10.1595 27.0008 10.4631 26.6972 10.4631 26.3247C10.4631 25.9516 10.1595 25.648 9.78643 25.648Z" fill="#535B72"/>
</g>
<mask id="mask1_0_2455" style="mask-type:alpha" maskUnits="userSpaceOnUse" x="22" y="25" width="5" height="3">
<path fill-rule="evenodd" clip-rule="evenodd" d="M22.7034 25.648H27V27.0008H22.7034V25.648Z" fill="white"/>
</mask>
<g mask="url(#mask1_0_2455)">
<path fill-rule="evenodd" clip-rule="evenodd" d="M26.3241 25.648H23.3795C23.0064 25.648 22.7034 25.9516 22.7034 26.3247C22.7034 26.6972 23.0064 27.0008 23.3795 27.0008H26.3241C26.6972 27.0008 27.0002 26.6972 27.0002 26.3247C27.0002 25.9516 26.6972 25.648 26.3241 25.648Z" fill="#535B72"/>
</g>
<path fill-rule="evenodd" clip-rule="evenodd" d="M19.8271 25.648C18.9747 25.648 18.281 24.9548 18.281 24.1024C18.281 23.2494 18.9747 22.5557 19.8271 22.5557C20.6796 22.5557 21.3733 23.2494 21.3733 24.1024C21.3733 24.9548 20.6796 25.648 19.8271 25.648ZM19.8271 21.2029C18.2292 21.2029 16.9282 22.5034 16.9282 24.1024C16.9282 25.7009 18.2292 27.0008 19.8271 27.0008C21.4251 27.0008 22.7261 25.7009 22.7261 24.1024C22.7261 22.5034 21.4251 21.2029 19.8271 21.2029Z" fill="#535B72"/>
<mask id="mask2_0_2455" style="mask-type:alpha" maskUnits="userSpaceOnUse" x="0" y="5" width="22" height="23">
<path fill-rule="evenodd" clip-rule="evenodd" d="M0.000732422 5.57916H21.7043V27.0008H0.000732422V5.57916Z" fill="white"/>
</mask>
<g mask="url(#mask2_0_2455)">
<path fill-rule="evenodd" clip-rule="evenodd" d="M5.54898 8.26906L5.73908 8.19908L6.16502 9.09393C6.06639 9.16447 5.98814 9.262 5.9402 9.3733L4.20945 13.3533C4.156 13.4784 4.04194 13.5732 3.89592 13.614C3.74769 13.6547 3.59726 13.631 3.48045 13.5473C3.30247 13.4189 3.24736 13.1544 3.35041 12.9186L5.2393 8.57102L5.36273 8.38367C5.37541 8.3743 5.38422 8.36714 5.39139 8.36163L5.47239 8.30598C5.48947 8.29661 5.50545 8.28669 5.5093 8.28449C5.53134 8.27677 5.55173 8.26851 5.55063 8.26851C5.55063 8.26851 5.55008 8.26851 5.54898 8.26906ZM13.9113 19.8697L13.5388 19.4641L14.4915 18.5103L15.4403 19.5374C15.4464 19.5462 15.4883 19.6024 15.501 19.6184C15.5147 19.635 15.5285 19.6515 15.5428 19.6735C15.5483 19.6823 15.5522 19.6912 15.5742 19.7336C15.5836 19.7512 15.593 19.7694 15.5979 19.7815L15.6349 19.9022C15.6382 19.9248 15.6404 19.9496 15.6437 19.992C15.6453 20.0085 15.6475 20.0245 15.6475 20.0344C15.647 20.0576 15.6448 20.0796 15.6398 20.116C15.6387 20.1342 15.6371 20.1524 15.6338 20.1705C15.6304 20.1854 15.6249 20.2009 15.6167 20.2245L13.6771 25.219C13.6071 25.3964 13.4572 25.5358 13.2638 25.602C13.0715 25.6697 12.8643 25.6499 12.6935 25.5469C12.4208 25.3838 12.3128 25.0074 12.4433 24.6718L14.043 20.5728C14.1372 20.3325 14.0848 20.0565 13.9113 19.8697ZM16.9887 20.2312C16.9942 20.1705 16.9992 20.1116 16.9997 20.0444C16.9997 19.9782 16.9959 19.9132 16.9904 19.8537C16.9843 19.7898 16.9766 19.7248 16.965 19.6603C16.9523 19.5958 16.9364 19.5325 16.9198 19.4785C16.9017 19.4123 16.8807 19.3479 16.8565 19.2856C16.8333 19.2244 16.8036 19.166 16.7672 19.0972C16.7397 19.0421 16.7115 18.9892 16.6763 18.9357C16.6405 18.8801 16.5991 18.8272 16.5573 18.7743C16.5429 18.7533 16.4889 18.6844 16.468 18.6613L14.0837 16.0682C13.7438 15.6979 13.5564 15.2185 13.5564 14.7176V10.7156L14.9367 11.4881C14.9577 11.4991 14.983 11.5113 14.9852 11.5113C15.1059 11.573 15.2265 11.6204 15.3505 11.6534L15.4045 11.6655C15.5412 11.6981 15.6712 11.7151 15.7858 11.7157C15.9688 11.7251 16.122 11.6953 16.2575 11.6617C16.3054 11.6507 16.3506 11.6352 16.3826 11.6226L16.4267 11.6082C16.4889 11.589 16.5501 11.5675 16.6107 11.5388L17.44 11.1432C17.6048 11.0655 17.7287 10.9294 17.7882 10.7591C17.8489 10.5889 17.84 10.4048 17.7618 10.2428C17.6847 10.0797 17.5485 9.95683 17.3794 9.89622C17.208 9.8334 17.0234 9.84277 16.8609 9.92157L16.0261 10.3155L15.9974 10.3255C15.9699 10.3326 15.9456 10.3409 15.9247 10.3508C15.8878 10.3591 15.8575 10.364 15.8619 10.3657L15.8167 10.3618C15.7831 10.3596 15.7451 10.3569 15.701 10.347C15.6679 10.3381 15.6343 10.3244 15.6023 10.3073C15.5891 10.3001 15.5704 10.2913 15.5671 10.2908L14.7929 9.8582L15.3092 9.00136C15.7754 9.16061 16.2818 9.13416 16.7176 8.92367L19.605 7.54942C19.8601 7.4293 20.156 7.49653 20.2805 7.70206C20.3532 7.82218 20.3714 7.96104 20.3323 8.09273C20.2932 8.22332 20.2006 8.33132 20.0783 8.38973L18.6765 9.05757C18.5123 9.13471 18.3889 9.27136 18.3288 9.44163C18.2682 9.61244 18.2775 9.79593 18.3547 9.95738C18.4318 10.1205 18.5679 10.2439 18.7388 10.3056C18.9096 10.3657 19.0931 10.3563 19.2567 10.2781L20.6602 9.61024C21.1269 9.38873 21.479 8.97712 21.6278 8.4812C21.776 7.98583 21.7071 7.44693 21.4382 7.00281C20.9588 6.20659 19.8987 5.91069 19.0247 6.32891L16.1357 7.70316C15.982 7.777 15.8007 7.77038 15.653 7.68718L13.406 6.4292C11.705 5.47869 9.67998 5.31724 7.85114 5.98563L5.07841 7.00061C5.05802 7.00777 5.03653 7.01659 5.02771 7.021C4.94947 7.0524 4.87563 7.08932 4.81006 7.12569C4.78692 7.13781 4.74173 7.16206 4.723 7.17363C4.65467 7.21661 4.59185 7.26675 4.5329 7.31524C4.51581 7.32791 4.45796 7.3753 4.43977 7.39183C4.40561 7.42489 4.3731 7.46126 4.30973 7.5351C4.27281 7.57587 4.23755 7.61775 4.20559 7.66238C4.183 7.69489 4.16151 7.72906 4.12294 7.79738C4.09704 7.83981 4.07059 7.88334 4.03422 7.95773L2.11006 12.3791C1.75465 13.1957 1.99985 14.1484 2.69139 14.6444C3.00988 14.873 3.38181 14.9943 3.76808 14.9943C4.49873 14.9943 5.15885 14.5612 5.44979 13.8911L7.06483 10.1778L8.48536 9.65653C8.65563 9.59371 8.79063 9.46918 8.86612 9.30663C8.94216 9.14242 8.94987 8.95838 8.88761 8.78977C8.82534 8.62006 8.70081 8.48451 8.53606 8.40847C8.37351 8.33298 8.19002 8.32526 8.01975 8.38698L7.42961 8.60298L7.01414 7.73181L8.31565 7.25573C9.77475 6.72124 11.3898 6.85018 12.7453 7.61004L14.108 8.37265L13.6126 9.19753L13.2093 8.97161C13.0004 8.857 12.7448 8.85865 12.5392 8.97822C12.3326 9.09889 12.2042 9.32316 12.2042 9.56285V14.7176C12.2042 15.5596 12.5177 16.3641 13.0875 16.9829L13.5751 17.5141L12.6224 18.4673L11.8576 17.6364C11.5287 17.2782 11.0592 17.0727 10.5693 17.0727C10.0822 17.0738 9.6133 17.281 9.2849 17.6425L8.72175 18.2607L7.76794 17.3069L8.05447 16.9923C8.41373 16.5983 8.67437 16.1205 8.81267 15.6042H10.8531C11.2261 15.6042 11.5298 15.3006 11.5298 14.9276C11.5298 14.5551 11.2261 14.2515 10.8531 14.2515H8.92894V10.8313C8.92894 10.4588 8.62532 10.1552 8.25228 10.1552C7.87924 10.1552 7.57618 10.4588 7.57618 10.8313V14.7358C7.57618 15.2362 7.39159 15.7133 7.05547 16.0809L5.83165 17.4237L2.36573 16.8374C1.76953 16.7377 1.1601 16.9063 0.702202 17.303C0.242651 17.6998 -0.0130227 18.2794 0.0013038 18.8938C0.0238956 19.8559 0.7551 20.6747 1.73977 20.8406L2.82859 21.0246C3.00381 21.0577 3.1829 21.0213 3.33167 20.9183C3.48155 20.8141 3.58459 20.6516 3.61379 20.4725C3.67716 20.1061 3.42865 19.7562 3.06057 19.6923L1.96569 19.5077C1.62351 19.4493 1.36012 19.1721 1.35406 18.8624C1.3491 18.6503 1.4312 18.4596 1.58714 18.3252C1.73922 18.1924 1.94255 18.1373 2.13981 18.1709L5.97326 18.8189C6.20194 18.8542 6.42896 18.7748 6.58214 18.6073L6.856 18.307L7.81037 19.2614L7.13316 20.0096C7.11718 20.0223 7.06979 20.0653 7.06043 20.0747C7.03839 20.0967 7.01579 20.1182 6.99375 20.1347L6.95518 20.1634C6.92983 20.1788 6.90394 20.1937 6.87969 20.2058L6.829 20.2295C6.80145 20.2411 6.77224 20.2482 6.70998 20.2653C6.62898 20.2824 6.54743 20.2835 6.47083 20.2697L5.14949 20.0466C4.97426 20.0163 4.79518 20.0543 4.64751 20.1579C4.49763 20.2631 4.3979 20.4202 4.36759 20.5998C4.33728 20.7783 4.37806 20.9574 4.48275 21.1056C4.588 21.2528 4.74339 21.3497 4.92081 21.3795L6.24492 21.6032C6.48681 21.6434 6.73808 21.6396 6.97061 21.5933C7.00367 21.5867 7.03618 21.5779 7.07365 21.5668C7.16622 21.5437 7.25604 21.5167 7.3409 21.482C7.37616 21.4671 7.41143 21.4511 7.46653 21.4236C7.54257 21.3872 7.61475 21.3464 7.69575 21.2946C7.73267 21.2698 7.76849 21.2445 7.80981 21.2142C7.88365 21.1569 7.95308 21.0935 7.98669 21.0582C8.00983 21.0395 8.06383 20.9883 8.07981 20.9706L10.2844 18.5539C10.3555 18.4756 10.4613 18.437 10.5743 18.431C10.6867 18.431 10.7925 18.4751 10.8641 18.5528L12.6296 20.4736L11.1848 24.1798C10.8162 25.1215 11.1655 26.2081 11.9976 26.7068C12.3172 26.8991 12.6803 27.001 13.0484 27.001C13.8898 27.001 14.6303 26.4946 14.9356 25.7105L16.8658 20.7679C16.8851 20.7177 16.8989 20.6676 16.9 20.6527C16.9237 20.58 16.9452 20.5078 16.959 20.4383C16.9705 20.381 16.9777 20.3248 16.9887 20.2312Z" fill="#535B72"/>
</g>
</svg>
