<svg width="37" height="19" viewBox="0 0 37 19" fill="none" xmlns="http://www.w3.org/2000/svg">
<path d="M36.5 17.5V10.5" stroke="#535B72" stroke-width="1.5" stroke-linecap="round"/>
<path d="M1.5 17.5H36.5" stroke="#535B72" stroke-width="1.5" stroke-linecap="round"/>
<path fill-rule="evenodd" clip-rule="evenodd" d="M20.1175 3.88297C22.3806 4.00524 24.1173 2.26969 23.9932 0.00632866C21.7301 -0.116873 19.9945 1.61798 20.1175 3.88297" fill="#535B72"/>
<mask id="mask0_506_8" style="mask-type:alpha" maskUnits="userSpaceOnUse" x="10" y="0" width="15" height="19">
<path fill-rule="evenodd" clip-rule="evenodd" d="M10 0H24.0002V18.6669H10V0Z" fill="white"/>
</mask>
<g mask="url(#mask0_506_8)">
<path fill-rule="evenodd" clip-rule="evenodd" d="M15.5262 17.1112H12.8003L12.8004 17.9963H24.0003L24.0002 17.1112H19.3335V11.5483C22.1653 11.0053 24.1582 8.54033 23.9904 5.45446C22.109 5.35343 20.4608 6.0574 19.3335 7.26142V0H17.7779V3.68928C16.1268 1.30131 13.3078 -0.165435 10.0148 0.0154002C9.74807 4.91989 13.1209 8.77997 17.7779 9.26904V17.1112H16.0666" fill="#535B72"/>
</g>
<path d="M0.5 17.5V10.5" stroke="#535B72" stroke-width="1.5" stroke-linecap="round"/>
</svg>
