<svg width="18" height="18" viewBox="0 0 18 18" fill="none" xmlns="http://www.w3.org/2000/svg">
<path fill-rule="evenodd" clip-rule="evenodd" d="M9.81818 1.68545C13.23 2.06182 15.9382 4.77 16.3145 8.18182H18V9.81818H16.3145C15.9382 13.23 13.23 15.9382 9.81818 16.3145V18H8.18182V16.3145C4.77 15.9382 2.06182 13.23 1.68545 9.81818H0V8.18182H1.68545C2.06182 4.77 4.77 2.06182 8.18182 1.68545V0H9.81818V1.68545ZM3.27273 9C3.27273 12.1623 5.83773 14.7273 9 14.7273C12.1623 14.7273 14.7273 12.1623 14.7273 9C14.7273 5.83773 12.1623 3.27273 9 3.27273C5.83773 3.27273 3.27273 5.83773 3.27273 9Z" fill="#535B72"/>
</svg>
