<svg width="11" height="19" viewBox="0 0 11 19" fill="none" xmlns="http://www.w3.org/2000/svg">
<path fill-rule="evenodd" clip-rule="evenodd" d="M5.14171 17.1831L4.488 15.7208C3.27721 13.0141 2.04914 10.5852 0.733857 8.29639C0.253786 7.46116 0 6.50877 0 5.54132C0 3.1243 1.59736 0.951125 3.88929 0.243357C3.91679 0.231481 3.94507 0.222773 3.97493 0.218023C4.98221 -0.0749013 6.03821 -0.0725262 7.04629 0.224356C7.0565 0.226731 7.06593 0.229898 7.07536 0.233065V0.232273C9.38614 0.928958 11 3.11164 11 5.54132C11 6.50877 10.7462 7.46116 10.2661 8.29639C8.95086 10.5852 7.72279 13.0141 6.512 15.7208L5.85829 17.1831C5.79464 17.3256 5.65479 17.4166 5.5 17.4166C5.34521 17.4166 5.20536 17.3256 5.14171 17.1831ZM4.15394 0.990271C4.14988 0.99152 4.14553 0.992861 4.1415 0.993876C2.16543 1.59318 0.785714 3.46156 0.785714 5.54132C0.785714 6.36943 1.00257 7.18487 1.4135 7.89897C2.74293 10.2123 3.98279 12.6641 5.20457 15.3962L5.5 16.0573L5.79543 15.397C7.01721 12.6649 8.25786 10.2131 9.5865 7.89976C9.99743 7.18487 10.2143 6.36943 10.2143 5.54132C10.2143 3.46077 8.83379 1.5916 6.85536 0.993084L6.83886 0.988334C5.95964 0.727077 5.03957 0.727077 4.16036 0.988334C4.15838 0.988902 4.15621 0.989572 4.15394 0.990271Z" fill="#5B5B5B"/>
<path d="M5.5 19C8.16671 19 11 18.1672 11 16.625C11 15.6805 9.86779 14.8833 7.97107 14.4922C7.75893 14.4478 7.55071 14.5864 7.5075 14.8009C7.4635 15.0155 7.601 15.2245 7.81393 15.2688C9.46314 15.6077 10.2143 16.2101 10.2143 16.625C10.2143 17.286 8.4205 18.2083 5.5 18.2083C2.5795 18.2083 0.785714 17.286 0.785714 16.625C0.785714 16.2101 1.53686 15.6077 3.18686 15.268C3.39979 15.2237 3.5365 15.0147 3.49329 14.8001C3.45007 14.5856 3.24186 14.4478 3.02971 14.4914C1.13221 14.8833 0 15.6805 0 16.625C0 18.1672 2.83329 19 5.5 19Z" fill="#5B5B5B"/>
<path fill-rule="evenodd" clip-rule="evenodd" d="M8.64265 5.54132C8.64265 7.28778 7.23308 8.70807 5.49979 8.70807C3.76651 8.70807 2.35693 7.28778 2.35693 5.54132C2.35693 3.79486 3.76651 2.37457 5.49979 2.37457C7.23308 2.37457 8.64265 3.79486 8.64265 5.54132ZM7.85693 5.54132C7.85693 4.23187 6.79936 3.16626 5.49979 3.16626C4.20022 3.16626 3.14265 4.23187 3.14265 5.54132C3.14265 6.85077 4.20022 7.91638 5.49979 7.91638C6.79936 7.91638 7.85693 6.85077 7.85693 5.54132Z" fill="#5B5B5B"/>
</svg>
