<svg width="20" height="20" viewBox="0 0 20 20" fill="none" xmlns="http://www.w3.org/2000/svg">
<path fill-rule="evenodd" clip-rule="evenodd" d="M17.5 0C18.9167 0 20 1.08333 20 2.5V17.5C20 18.9167 18.9167 20 17.5 20H2.5C1.08333 20 0 18.9167 0 17.5V2.5C0 1.08333 1.08333 0 2.5 0H17.5ZM17.5 18.3333C18 18.3333 18.3333 18 18.3333 17.5V2.5C18.3333 2 18 1.66667 17.5 1.66667H2.5C2 1.66667 1.66667 2 1.66667 2.5V17.5C1.66667 18 2 18.3333 2.5 18.3333H17.5ZM12.0833 4.16667H5V15.8333H6.66667V11.6667H12.0833C14.1667 11.6667 15.8333 10 15.8333 7.91667C15.8333 5.83333 14.1667 4.16667 12.0833 4.16667ZM6.66667 10H12.0833C13.25 10 14.1667 9.08333 14.1667 7.91667C14.1667 6.75 13.25 5.83333 12.0833 5.83333H6.66667V10Z" fill="#535B72"/>
</svg>
