<svg width="12" height="14" viewBox="0 0 12 14" fill="none" xmlns="http://www.w3.org/2000/svg">
<path fill-rule="evenodd" clip-rule="evenodd" d="M11.5968 10.0887C10.7045 8.98327 9.55381 8.41155 7.60935 8.22792C7.2584 8.16096 6.99387 7.86619 6.99387 7.51611C6.99387 7.25977 7.86139 6.49239 7.85519 6.48671C8.75061 5.60887 9.23066 4.18245 9.23066 3.08583C9.23066 1.38256 7.78451 0 5.99997 0C4.21542 0 2.7692 1.38256 2.7692 3.08583C2.7692 4.18842 3.23693 5.62338 4.14156 6.50125C4.14156 6.50125 5.00613 7.25981 5.00613 7.51615C5.00613 7.88671 4.71078 8.19569 4.32918 8.23961C2.42455 8.42921 1.28624 8.99778 0.403075 10.0887C0.14769 10.4037 0.00917773 11.0366 0 11.3751C0.00304795 11.4625 0 12.8334 0 12.8334C0 13.4779 0.550799 14 1.2308 14H10.7691C11.4491 14 12 13.4779 12 12.8334C12 12.8334 11.997 11.4625 12 11.3751C11.9909 11.0366 11.852 10.4036 11.5968 10.0887Z" fill="#535B72"/>
</svg>
