<svg width="18" height="15" viewBox="0 0 18 15" fill="none" xmlns="http://www.w3.org/2000/svg">
<path fill-rule="evenodd" clip-rule="evenodd" d="M2.07692 15H15.9231C17.0701 15 18 14.0842 18 12.9545V2.04545C18 0.915781 17.0701 0 15.9231 0H2.07692C0.92987 0 0 0.915781 0 2.04545V12.9545C0 14.0842 0.92987 15 2.07692 15ZM1.38462 2.04545C1.38462 1.6689 1.69457 1.36364 2.07692 1.36364H15.9231C16.3054 1.36364 16.6154 1.6689 16.6154 2.04545V12.9545C16.6154 13.3311 16.3054 13.6364 15.9231 13.6364H2.07692C1.69457 13.6364 1.38462 13.3311 1.38462 12.9545V2.04545Z" fill="white"/>
<path fill-rule="evenodd" clip-rule="evenodd" d="M10.3845 4.77275C10.3845 5.90242 11.3144 6.8182 12.4614 6.8182C13.0123 6.8182 13.5406 6.6027 13.9301 6.2191C14.3195 5.83551 14.5384 5.31524 14.5384 4.77275C14.5384 3.64308 13.6085 2.72729 12.4614 2.72729C11.3144 2.72729 10.3845 3.64308 10.3845 4.77275ZM11.7691 4.77275C11.7691 4.39619 12.0791 4.09093 12.4614 4.09093C12.8438 4.09093 13.1538 4.39619 13.1538 4.77275C13.1538 5.14931 12.8438 5.45457 12.4614 5.45457C12.0791 5.45457 11.7691 5.14931 11.7691 4.77275Z" fill="white"/>
<path d="M2.07704 15C1.94438 14.9996 1.81462 14.9618 1.70319 14.8909C1.38249 14.6872 1.2896 14.2664 1.4955 13.95L5.80858 7.39088C6.18884 6.8122 6.83947 6.46106 7.53935 6.45679C8.23525 6.45653 8.88505 6.79954 9.27012 7.37042L13.7147 13.9432C13.8837 14.2534 13.7851 14.6393 13.4871 14.8338C13.1891 15.0283 12.7897 14.9673 12.5655 14.6932L8.11396 8.12724C7.98659 7.93675 7.77094 7.8216 7.53935 7.82042C7.30643 7.82311 7.0905 7.94097 6.96473 8.13406L2.65858 14.6863C2.53147 14.8814 2.31242 14.9996 2.07704 15Z" fill="white"/>
</svg>
