<svg width="26" height="22" viewBox="0 0 26 22" fill="none" xmlns="http://www.w3.org/2000/svg">
<path fill-rule="evenodd" clip-rule="evenodd" d="M3 22H23C24.6569 22 26 20.6569 26 19V3C26 1.34315 24.6569 0 23 0H3C1.34315 0 0 1.34315 0 3V19C0 20.6569 1.34315 22 3 22ZM2 3C2 2.44772 2.44772 2 3 2H23C23.5523 2 24 2.44772 24 3V19C24 19.5523 23.5523 20 23 20H3C2.44772 20 2 19.5523 2 19V3Z" fill="#535B72"/>
<path fill-rule="evenodd" clip-rule="evenodd" d="M15 7C15 8.65685 16.3431 10 18 10C18.7956 10 19.5587 9.68393 20.1213 9.12132C20.6839 8.55871 21 7.79565 21 7C21 5.34315 19.6569 4 18 4C16.3431 4 15 5.34315 15 7ZM17 7C17 6.44772 17.4477 6 18 6C18.5523 6 19 6.44772 19 7C19 7.55228 18.5523 8 18 8C17.4477 8 17 7.55228 17 7Z" fill="#535B72"/>
<path d="M3.00002 22C2.80841 21.9995 2.62097 21.9439 2.46002 21.84C1.99678 21.5413 1.86261 20.924 2.16002 20.46L8.39002 10.84C8.93928 9.99124 9.87908 9.47623 10.89 9.46997C11.8952 9.4696 12.8338 9.97268 13.39 10.81L19.81 20.45C20.0541 20.905 19.9116 21.471 19.4812 21.7563C19.0507 22.0415 18.4739 21.9521 18.15 21.55L11.72 11.92C11.536 11.6406 11.2245 11.4717 10.89 11.47C10.5536 11.4739 10.2417 11.6468 10.06 11.93L3.84002 21.54C3.65642 21.8261 3.34001 21.9994 3.00002 22Z" fill="#535B72"/>
</svg>
