<svg width="12" height="12" viewBox="0 0 12 12" fill="none" xmlns="http://www.w3.org/2000/svg">
<path fill-rule="evenodd" clip-rule="evenodd" d="M11.9552 4.66475C11.8513 4.36512 11.5847 4.14575 11.2637 4.09812L8.14144 3.63387L6.78432 0.816122C6.64144 0.520247 6.33582 0.330872 5.99982 0.330872C5.66382 0.330872 5.35819 0.520247 5.21532 0.816122L3.85819 3.63387L0.73557 4.09812C0.414945 4.14575 0.14832 4.36512 0.0448195 4.66475C-0.0583055 4.96512 0.0196945 5.29587 0.246195 5.52162L2.53444 7.80612L2.00382 10.9752C1.94982 11.2944 2.08819 11.6146 2.35932 11.8014C2.50819 11.9037 2.68332 11.9559 2.85844 11.9559C3.00244 11.9559 3.14682 11.9206 3.27769 11.8505L5.99982 10.385L8.72232 11.8505C8.85319 11.9206 8.99757 11.9559 9.14119 11.9559C9.31632 11.9559 9.49144 11.9037 9.64069 11.8014C9.91182 11.6146 10.0494 11.2944 9.99582 10.9752L9.46482 7.80612L11.7538 5.52162C11.9799 5.2955 12.0576 4.96475 11.9552 4.66475Z" fill="#F16C20"/>
</svg>
