<svg width="17" height="17" viewBox="0 0 17 17" fill="none" xmlns="http://www.w3.org/2000/svg">
<path fill-rule="evenodd" clip-rule="evenodd" d="M16.9282 6.02679C16.7837 5.61013 16.4129 5.30506 15.9665 5.23883L11.6247 4.59323L9.73742 0.6748C9.53873 0.263349 9.11372 0 8.64647 0C8.17922 0 7.75421 0.263349 7.55553 0.6748L5.66828 4.59323L1.32588 5.23883C0.88001 5.30506 0.509235 5.61013 0.365306 6.02679C0.221898 6.4445 0.330366 6.90445 0.645343 7.21838L3.82744 10.3953L3.08954 14.8023C3.01444 15.2461 3.20687 15.6915 3.5839 15.9512C3.79093 16.0935 4.03447 16.166 4.278 16.166C4.47825 16.166 4.67902 16.117 4.86102 16.0195L8.64647 13.9815L12.4324 16.0195C12.6144 16.117 12.8152 16.166 13.0149 16.166C13.2585 16.166 13.502 16.0935 13.7096 15.9512C14.0866 15.6915 14.278 15.2461 14.2034 14.8023L13.465 10.3953L16.6481 7.21838C16.9626 6.90393 17.0705 6.44398 16.9282 6.02679Z" fill="#F16C20"/>
</svg>
