<svg width="24" height="22" viewBox="0 0 24 22" fill="none" xmlns="http://www.w3.org/2000/svg">
<path fill-rule="evenodd" clip-rule="evenodd" d="M23.9124 8.20174C23.7079 7.63471 23.183 7.21955 22.551 7.12942L16.4041 6.25084L13.7322 0.918323C13.4509 0.358387 12.8492 0 12.1877 0C11.5262 0 10.9245 0.358387 10.6432 0.918323L7.97135 6.25084L1.82365 7.12942C1.19242 7.21955 0.667494 7.63471 0.463727 8.20174C0.260699 8.77019 0.414262 9.39613 0.860187 9.82335L5.36521 14.1467L4.32053 20.1442C4.21422 20.7481 4.48665 21.3542 5.02043 21.7076C5.31353 21.9014 5.65831 22 6.00308 22C6.28659 22 6.57083 21.9333 6.82849 21.8006L12.1877 19.0272L17.5477 21.8006C17.8053 21.9333 18.0896 22 18.3723 22C18.7171 22 19.0619 21.9014 19.3557 21.7076C19.8895 21.3542 20.1605 20.7481 20.0549 20.1442L19.0095 14.1467L23.516 9.82335C23.9611 9.39542 24.114 8.76948 23.9124 8.20174Z" fill="#F16C20"/>
</svg>
