<svg width="5" height="5" viewBox="0 0 5 5" fill="none" xmlns="http://www.w3.org/2000/svg">
<path fill-rule="evenodd" clip-rule="evenodd" d="M4.98183 1.86403C4.93963 1.73516 4.83131 1.64081 4.7009 1.62032L3.43248 1.42065L2.88115 0.20871C2.8231 0.0814516 2.69894 0 2.56244 0C2.42594 0 2.30178 0.0814516 2.24374 0.20871L1.6924 1.42065L0.423827 1.62032C0.293572 1.64081 0.185255 1.73516 0.143208 1.86403C0.101313 1.99323 0.133001 2.13548 0.225017 2.23258L1.15462 3.21516L0.939057 4.57823C0.917119 4.71548 0.973334 4.85323 1.08348 4.93355C1.14396 4.97758 1.21511 5 1.28625 5C1.34475 5 1.4034 4.98484 1.45657 4.95468L2.56244 4.32435L3.66846 4.95468C3.72163 4.98484 3.78028 5 3.83863 5C3.90978 5 3.98092 4.97758 4.04156 4.93355C4.1517 4.85323 4.20761 4.71548 4.18583 4.57823L3.97011 3.21516L4.90002 2.23258C4.99188 2.13532 5.02342 1.99306 4.98183 1.86403Z" fill="#4DB7FE"/>
</svg>
