<svg width="12" height="12" viewBox="0 0 12 12" fill="none" xmlns="http://www.w3.org/2000/svg">
<path fill-rule="evenodd" clip-rule="evenodd" d="M11.9552 4.33388C11.8513 4.03425 11.5847 3.81488 11.2637 3.76725L8.14144 3.303L6.78432 0.48525C6.64144 0.189375 6.33582 0 5.99982 0C5.66382 0 5.35819 0.189375 5.21532 0.48525L3.85819 3.303L0.73557 3.76725C0.414945 3.81488 0.14832 4.03425 0.0448195 4.33388C-0.0583055 4.63425 0.0196945 4.965 0.246195 5.19075L2.53444 7.47525L2.00382 10.6444C1.94982 10.9635 2.08819 11.2837 2.35932 11.4705C2.50819 11.5729 2.68332 11.625 2.85844 11.625C3.00244 11.625 3.14682 11.5897 3.27769 11.5196L5.99982 10.0541L8.72232 11.5196C8.85319 11.5897 8.99757 11.625 9.14119 11.625C9.31632 11.625 9.49144 11.5729 9.64069 11.4705C9.91182 11.2837 10.0494 10.9635 9.99582 10.6444L9.46482 7.47525L11.7538 5.19075C11.9799 4.96463 12.0576 4.63388 11.9552 4.33388Z" fill="white"/>
</svg>
