<svg width="70" height="26" viewBox="0 0 70 26" fill="none" xmlns="http://www.w3.org/2000/svg">
<path fill-rule="evenodd" clip-rule="evenodd" d="M30.5369 10.2017C30.3324 9.63471 29.8075 9.21955 29.1755 9.12942L23.0286 8.25084L20.3567 2.91832C20.0754 2.35839 19.4737 2 18.8122 2C18.1507 2 17.549 2.35839 17.2677 2.91832L14.5959 8.25084L8.44816 9.12942C7.81693 9.21955 7.29201 9.63471 7.08824 10.2017C6.88521 10.7702 7.03877 11.3961 7.4847 11.8234L11.9897 16.1467L10.945 22.1442C10.8387 22.7481 11.1112 23.3542 11.6449 23.7076C11.938 23.9014 12.2828 24 12.6276 24C12.9111 24 13.1953 23.9333 13.453 23.8006L18.8122 21.0272L24.1722 23.8006C24.4298 23.9333 24.7141 24 24.9968 24C25.3416 24 25.6864 23.9014 25.9802 23.7076C26.514 23.3542 26.785 22.7481 26.6794 22.1442L25.634 16.1467L30.1405 11.8234C30.5857 11.3954 30.7385 10.7695 30.5369 10.2017Z" fill="#D8D8D8"/>
<path fill-rule="evenodd" clip-rule="evenodd" d="M62.1307 10.2017C61.9262 9.63471 61.4013 9.21955 60.7693 9.12942L54.6223 8.25084L51.9505 2.91832C51.6692 2.35839 51.0675 2 50.406 2C49.7445 2 49.1428 2.35839 48.8615 2.91832L46.1896 8.25084L40.0419 9.12942C39.4107 9.21955 38.8858 9.63471 38.682 10.2017C38.479 10.7702 38.6325 11.3961 39.0784 11.8234L43.5835 16.1467L42.5388 22.1442C42.4325 22.7481 42.7049 23.3542 43.2387 23.7076C43.5318 23.9014 43.8766 24 44.2213 24C44.5048 24 44.7891 23.9333 45.0467 23.8006L50.406 21.0272L55.7659 23.8006C56.0236 23.9333 56.3078 24 56.5906 24C56.9354 24 57.2801 23.9014 57.574 23.7076C58.1078 23.3542 58.3787 22.7481 58.2731 22.1442L57.2277 16.1467L61.7342 11.8234C62.1794 11.3954 62.3322 10.7695 62.1307 10.2017Z" fill="#F16C20"/>
</svg>
