<svg width="11" height="19" viewBox="0 0 11 19" fill="none" xmlns="http://www.w3.org/2000/svg">
<path fill-rule="evenodd" clip-rule="evenodd" d="M5.5 19C3.99693 19 2.48286 18.8789 0.997071 18.639C0.419571 18.5463 0 18.0396 0 17.4355V1.56295C0 0.958036 0.419571 0.451306 0.997071 0.35867C3.96864 -0.119557 7.03214 -0.119557 10.0029 0.35867C10.5804 0.452098 11 0.958036 11 1.56295V17.4347C11 18.0396 10.5804 18.5463 10.0029 18.639C8.51714 18.8789 7.00229 19 5.5 19ZM0.785714 15.0412H10.2143V3.16469H0.785714V15.0412ZM9.87879 17.8575C6.99129 18.323 4.01107 18.323 1.12121 17.8575C0.930286 17.8266 0.785714 17.6453 0.785714 17.4347V15.8329H10.2143V17.4347C10.2143 17.6453 10.0697 17.8266 9.87879 17.8575ZM5.5 0.78939C4.03857 0.78939 2.56536 0.907363 1.12121 1.14014C0.930286 1.17102 0.785714 1.35234 0.785714 1.56295V2.37292H10.2143V1.56295C10.2143 1.35234 10.0697 1.17102 9.87879 1.14014C8.43464 0.907363 6.96064 0.78939 5.5 0.78939Z" fill="#5B5B5B"/>
<path d="M6.28557 16.6247H4.71415C4.49729 16.6247 4.32129 16.8021 4.32129 17.0206C4.32129 17.2391 4.49729 17.4165 4.71415 17.4165H6.28557C6.50243 17.4165 6.67843 17.2391 6.67843 17.0206C6.67843 16.8021 6.50243 16.6247 6.28557 16.6247Z" fill="#5B5B5B"/>
</svg>
