<svg width="16" height="16" viewBox="0 0 16 16" fill="none" xmlns="http://www.w3.org/2000/svg">
<path d="M14.9447 5.95872L14.9449 5.95875C15.1922 5.99544 15.391 6.16315 15.4675 6.38234C15.5411 6.59963 15.486 6.84061 15.3185 7.00834C15.3184 7.00843 15.3183 7.00852 15.3182 7.00861L12.2666 10.0543L12.084 10.2364L12.1266 10.4908L12.8346 14.7163L12.8347 14.7165C12.8733 14.9461 12.7758 15.1819 12.571 15.3231C12.4573 15.401 12.323 15.4412 12.1883 15.4412C12.0783 15.4412 11.9671 15.4141 11.8661 15.36C11.866 15.36 11.866 15.36 11.8659 15.3599L8.23675 13.4064L7.99974 13.2788L7.76274 13.4064L4.13411 15.3599C4.13402 15.36 4.13393 15.36 4.13384 15.3601C4.03291 15.4141 3.92175 15.4412 3.81126 15.4412C3.67633 15.4412 3.54221 15.4009 3.42931 15.3233C3.22357 15.1816 3.12609 14.9456 3.16475 14.7171L3.16489 14.7162L3.87239 10.4907L3.91497 10.2365L3.73252 10.0543L0.681523 7.00832L0.681226 7.00802C0.513238 6.84059 0.458091 6.5998 0.532509 6.38248C0.608378 6.16338 0.807101 5.99544 1.05422 5.95874L1.05429 5.95873L5.21779 5.33973L5.47979 5.30077L5.59473 5.06213L7.40401 1.30558C7.50893 1.08831 7.73865 0.941162 7.99976 0.941162C8.26082 0.941162 8.4905 1.08825 8.59545 1.30546C8.59547 1.3055 8.59549 1.30554 8.59551 1.30558L10.4048 5.06213L10.5197 5.30077L10.7817 5.33972L14.9447 5.95872Z" stroke="#535B72"/>
</svg>
