<svg width="35" height="28" viewBox="0 0 35 28" fill="none" xmlns="http://www.w3.org/2000/svg">
<path fill-rule="evenodd" clip-rule="evenodd" d="M0.64188 18.2338C1.92908 18.2338 2.61929 17.4307 3.17284 16.7852C3.7259 16.1411 4.07187 15.7767 4.74883 15.7767C5.43218 15.7767 5.8044 16.1649 6.35501 16.7989C6.91003 17.4383 7.60049 18.2338 8.85603 18.2338C9.21059 18.2338 9.49767 17.9462 9.49767 17.5922C9.49767 17.2379 9.21059 16.9505 8.85603 16.9505C8.21734 16.9505 7.87457 16.5921 7.32396 15.958C6.75741 15.3051 6.05272 14.4934 4.74883 14.4934C3.44913 14.4934 2.75621 15.3005 2.19947 15.9492C1.65034 16.5886 1.30707 16.9505 0.64188 16.9505C0.28757 16.9505 0 17.2379 0 17.5922C0 17.9462 0.28757 18.2338 0.64188 18.2338Z" fill="#535B72"/>
<path fill-rule="evenodd" clip-rule="evenodd" d="M33.4989 16.9504C32.86 16.9504 32.5175 16.592 31.9673 15.9579C31.4003 15.3053 30.6954 14.4933 29.392 14.4933C28.0923 14.4933 27.3993 15.3004 26.8424 15.9494C26.2932 16.5885 25.95 16.9504 25.2848 16.9504C25.2173 16.9504 25.1535 16.9455 25.0922 16.9374V3.40103C25.0922 1.52545 23.5667 0 21.6911 0C19.8153 0 18.2901 1.52545 18.2901 3.40103C18.2901 3.75583 18.5772 4.04291 18.9312 4.04291C19.2858 4.04291 19.5734 3.75583 19.5734 3.40103C19.5734 2.23333 20.5232 1.28327 21.6911 1.28327C22.8586 1.28327 23.8089 2.23333 23.8089 3.40103V6.39574H19.6376C19.2831 6.39574 18.996 6.68282 18.996 7.03762C18.996 7.39217 19.2831 7.67925 19.6376 7.67925H23.8089V9.19783H23.3005C22.9462 9.19783 22.6591 9.48491 22.6591 9.83971C22.6591 10.1943 22.9462 10.4813 23.3005 10.4813H23.8089V11.9999H19.6376C19.2831 11.9999 18.996 12.2875 18.996 12.642C18.996 12.9964 19.2831 13.2834 19.6376 13.2834H23.8089V16.0217C23.7902 16.0006 23.7718 15.98 23.7527 15.9579C23.1864 15.3053 22.4815 14.4933 21.1778 14.4933C19.8781 14.4933 19.1852 15.3004 18.628 15.9494C18.0786 16.5885 17.736 16.9504 17.0701 16.9504C16.5607 16.9504 16.2393 16.7213 15.8511 16.3078V3.40103C15.8511 1.52545 14.3252 0 12.4499 0C10.5743 0 9.04883 1.52545 9.04883 3.40103C9.04883 3.75583 9.33591 4.04291 9.69046 4.04291C10.0448 4.04291 10.3321 3.75583 10.3321 3.40103C10.3321 2.23333 11.2822 1.28327 12.4499 1.28327C13.6178 1.28327 14.5676 2.23333 14.5676 3.40103V15.0106C14.1503 14.711 13.6369 14.4933 12.9632 14.4933C11.6635 14.4933 10.9701 15.3008 10.4133 15.9494C10.3606 16.0112 10.3078 16.073 10.2546 16.1334C10.0207 16.4003 10.0475 16.8057 10.3144 17.039C10.5809 17.2724 10.9865 17.2456 11.2198 16.9792C11.2758 16.9149 11.3315 16.8503 11.3869 16.7856C11.9405 16.141 12.286 15.7769 12.9632 15.7769C13.6465 15.7769 14.0185 16.165 14.5691 16.7991C15.1241 17.4382 15.8146 18.2337 17.0701 18.2337C18.3581 18.2337 19.0478 17.4306 19.6016 16.7851C20.1551 16.141 20.5006 15.7769 21.1778 15.7769C21.8612 15.7769 22.2331 16.165 22.7837 16.7991C23.3388 17.4382 24.0292 18.2337 25.2848 18.2337C26.5722 18.2337 27.2622 17.4306 27.8157 16.7851C28.3693 16.141 28.7148 15.7769 29.392 15.7769C30.0753 15.7769 30.4473 16.165 30.9979 16.7991C31.5527 17.4382 32.2439 18.2337 33.4989 18.2337C33.8535 18.2337 34.1406 17.9464 34.1406 17.5921C34.1406 17.238 33.8535 16.9504 33.4989 16.9504Z" fill="#535B72"/>
<path fill-rule="evenodd" clip-rule="evenodd" d="M0.64188 22.7194C1.92908 22.7194 2.61929 21.9159 3.17284 21.2708C3.7259 20.6262 4.07187 20.2618 4.74883 20.2618C5.43218 20.2618 5.8044 20.65 6.35501 21.2845C6.91003 21.924 7.60049 22.7194 8.85603 22.7194C10.1437 22.7194 10.8334 21.9159 11.3872 21.2708C11.9403 20.6262 12.286 20.2618 12.963 20.2618C13.6463 20.2618 14.0183 20.65 14.5689 21.2845C15.1239 21.924 15.8144 22.7194 17.0702 22.7194C18.3579 22.7194 19.0476 21.9159 19.6016 21.2708C20.1549 20.6262 20.5007 20.2618 21.1776 20.2618C21.8607 20.2618 22.2278 20.6449 22.7708 21.2693C23.0032 21.5373 23.4085 21.5655 23.676 21.3331C23.9434 21.1005 23.9721 20.6952 23.7398 20.4277C23.1786 19.7822 22.4808 18.9786 21.1776 18.9786C19.8779 18.9786 19.185 19.7856 18.6278 20.4343C18.0784 21.0743 17.7359 21.4357 17.0702 21.4357C16.4313 21.4357 16.0887 21.0772 15.5384 20.4432C14.9721 19.7907 14.2666 18.9786 12.963 18.9786C11.6638 18.9786 10.9704 19.7856 10.4136 20.4343C9.86425 21.0743 9.52172 21.4357 8.85603 21.4357C8.21734 21.4357 7.87457 21.0772 7.32396 20.4432C6.75741 19.7907 6.05272 18.9786 4.74883 18.9786C3.44913 18.9786 2.75621 19.7856 2.19947 20.4343C1.65034 21.0743 1.30707 21.4357 0.64188 21.4357C0.28757 21.4357 0 21.723 0 22.0778C0 22.4319 0.28757 22.7194 0.64188 22.7194Z" fill="#535B72"/>
<path fill-rule="evenodd" clip-rule="evenodd" d="M33.4989 21.4356C32.8599 21.4356 32.5174 21.0771 31.9673 20.4431C31.4002 19.7909 30.6953 18.9785 29.3919 18.9785C28.0922 18.9785 27.3993 19.7855 26.8423 20.4345C26.2932 21.0741 25.9499 21.4356 25.2847 21.4356C24.9301 21.4356 24.6426 21.7231 24.6426 22.0777C24.6426 22.432 24.9301 22.7193 25.2847 22.7193C26.5721 22.7193 27.2621 21.9157 27.8157 21.2707C28.3692 20.6261 28.7147 20.262 29.3919 20.262C30.0753 20.262 30.4472 20.6501 30.9978 21.2847C31.5526 21.9238 32.2438 22.7193 33.4989 22.7193C33.8534 22.7193 34.1405 22.432 34.1405 22.0777C34.1405 21.7231 33.8534 21.4356 33.4989 21.4356Z" fill="#535B72"/>
<mask id="mask0_0_2485" style="mask-type:alpha" maskUnits="userSpaceOnUse" x="0" y="23" width="16" height="5">
<path fill-rule="evenodd" clip-rule="evenodd" d="M0 23.4637H15.7726V27.204H0V23.4637Z" fill="white"/>
</mask>
<g mask="url(#mask0_0_2485)">
<path fill-rule="evenodd" clip-rule="evenodd" d="M3.17309 25.7559C3.72614 25.1118 4.07211 24.7472 4.74908 24.7472C5.43243 24.7472 5.80465 25.1358 6.35525 25.7699C6.91003 26.409 7.60049 27.204 8.85628 27.204C10.144 27.204 10.8334 26.4014 11.3875 25.7559C11.9405 25.1118 12.286 24.7472 12.9632 24.7472C13.6466 24.7472 14.0186 25.1358 14.5692 25.7699L14.6472 25.8594C14.8796 26.1264 15.2856 26.1536 15.5526 25.9213C15.8198 25.6879 15.8478 25.2823 15.6144 25.0158L15.5381 24.9282C14.9716 24.2756 14.2666 23.4637 12.9632 23.4637C11.664 23.4637 10.9706 24.2712 10.4136 24.9197C9.86449 25.5588 9.52196 25.9213 8.85628 25.9213C8.21734 25.9213 7.87481 25.5623 7.32396 24.9282C6.75741 24.2756 6.05272 23.4637 4.74908 23.4637C3.44937 23.4637 2.75645 24.2712 2.19947 24.9197C1.65058 25.5588 1.30732 25.9213 0.642126 25.9213C0.28757 25.9213 0 26.2083 0 26.5629C0 26.9169 0.28757 27.204 0.642126 27.204C1.92932 27.204 2.61929 26.4014 3.17309 25.7559Z" fill="#535B72"/>
</g>
<mask id="mask1_0_2485" style="mask-type:alpha" maskUnits="userSpaceOnUse" x="16" y="23" width="19" height="5">
<path fill-rule="evenodd" clip-rule="evenodd" d="M16.4285 23.4638H34.1405V27.2041H16.4285V23.4638Z" fill="white"/>
</mask>
<g mask="url(#mask1_0_2485)">
<path fill-rule="evenodd" clip-rule="evenodd" d="M22.7837 25.7698C23.3387 26.4089 24.0292 27.2042 25.2847 27.2042C26.5719 27.2042 27.2622 26.4013 27.8157 25.7558C28.3693 25.1117 28.7147 24.7471 29.3919 24.7471C30.0753 24.7471 30.447 25.1357 30.9979 25.7698C31.5526 26.4089 32.2438 27.2042 33.4989 27.2042C33.8535 27.2042 34.1405 26.9171 34.1405 26.5628C34.1405 26.2082 33.8535 25.9212 33.4989 25.9212C32.86 25.9212 32.5174 25.5622 31.9673 24.9282C31.4003 24.2755 30.6953 23.4638 29.3919 23.4638C28.0922 23.4638 27.3993 24.2713 26.8423 24.9196C26.2932 25.559 25.9499 25.9212 25.2847 25.9212C24.6461 25.9212 24.3033 25.5622 23.7527 24.9282C23.1864 24.2755 22.4814 23.4638 21.1778 23.4638C19.8781 23.4638 19.1852 24.2713 18.6279 24.9196C18.0786 25.559 17.736 25.9212 17.0701 25.9212C16.716 25.9212 16.4285 26.2082 16.4285 26.5628C16.4285 26.9171 16.716 27.2042 17.0701 27.2042C18.358 27.2042 19.0475 26.4013 19.6016 25.7558C20.1551 25.1117 20.5006 24.7471 21.1778 24.7471C21.8611 24.7471 22.2331 25.1357 22.7837 25.7698Z" fill="#535B72"/>
</g>
<path fill-rule="evenodd" clip-rule="evenodd" d="M17.4556 12C17.1008 12 16.8132 12.2875 16.8132 12.6421C16.8132 12.9964 17.1008 13.2832 17.4556 13.2832H17.8568C18.2108 13.2832 18.4984 12.9964 18.4984 12.6421C18.4984 12.2875 18.2108 12 17.8568 12H17.4556Z" fill="#535B72"/>
<path fill-rule="evenodd" clip-rule="evenodd" d="M16.4285 9.8396C16.4285 10.1942 16.716 10.4812 17.0701 10.4812H21.5196C21.8741 10.4812 22.1617 10.1942 22.1617 9.8396C22.1617 9.48505 21.8741 9.19797 21.5196 9.19797H17.0701C16.716 9.19797 16.4285 9.48505 16.4285 9.8396Z" fill="#535B72"/>
<path fill-rule="evenodd" clip-rule="evenodd" d="M17.8568 7.6792C18.2108 7.6792 18.4984 7.39213 18.4984 7.03757C18.4984 6.68277 18.2108 6.39594 17.8568 6.39594H17.4556C17.1008 6.39594 16.8135 6.68277 16.8135 7.03757C16.8135 7.39213 17.1008 7.6792 17.4556 7.6792H17.8568Z" fill="#535B72"/>
</svg>
