<svg width="24" height="18" viewBox="0 0 24 18" fill="none" xmlns="http://www.w3.org/2000/svg">
<path d="M6.69414 4H3.75122C3.75245 4.01443 3.76024 4.02686 3.76024 4.04161V6.67498C3.76532 6.86823 3.65696 7.04884 3.47716 7.14685C3.29736 7.24486 3.07435 7.24486 2.89455 7.14685C2.71474 7.04884 2.60639 6.86823 2.61147 6.67498V4.04161C2.61147 4.02686 2.61926 4.01443 2.62053 4H1.03701C0.464326 3.99998 4.70084e-05 4.43015 0 4.96083V17.0392C2.25742e-05 17.294 0.109291 17.5384 0.303769 17.7186C0.498246 17.8988 0.762001 18 1.03701 18H2.62053C2.61926 17.9856 2.61147 17.9731 2.61147 17.9584V9.31242C2.61906 9.0235 2.87398 8.79296 3.18585 8.79296C3.49772 8.79296 3.75265 9.0235 3.76024 9.31242V17.9584C3.76024 17.9731 3.75245 17.9856 3.75122 18H6.69414C7.04046 18 7.37261 17.8725 7.6175 17.6456C7.8624 17.4187 7.99999 17.1109 8 16.79V5.20989C7.99991 4.54164 7.41527 3.99998 6.69414 4Z" fill="#949AA9"/>
<path d="M23.5461 7.13731C23.1123 6.52748 22.4201 6.16849 21.685 6.1721H18.589C18.3655 6.1721 18.155 6.06439 18.0203 5.88116C17.8856 5.69793 17.8423 5.4604 17.9035 5.23954L18.3269 3.70917C18.5702 2.83074 18.3983 1.88592 17.8626 1.1571C17.3268 0.42828 16.4893 -0.000100252 15.6004 1.75982e-08C14.7855 0.000973432 14.1251 0.679497 14.1242 1.51674C14.1227 2.41393 13.8341 3.28571 13.3028 3.99778L12.1374 5.55445C11.8447 5.94264 11.3942 6.17053 10.9162 6.17214H9V16.2103L10.2661 17.0782C11.142 17.6803 12.1724 18.0012 13.2262 18H18.2685C20.0522 18.0067 21.6292 16.8112 22.1492 15.0583L23.8947 9.2487C24.115 8.5282 23.9853 7.74285 23.5461 7.13731Z" fill="#949AA9"/>
</svg>
