<svg width="19" height="15" viewBox="0 0 19 15" fill="none" xmlns="http://www.w3.org/2000/svg">
<path d="M16.5394 3.73051C16.5473 3.89254 16.5503 4.05519 16.5503 4.21966C16.5503 9.2154 12.7479 14.975 5.79496 14.975C3.66045 14.975 1.67276 14.3494 0 13.2773C0.296053 13.312 0.596369 13.3297 0.901559 13.3297C2.673 13.3297 4.30312 12.7254 5.59637 11.7117C3.94249 11.6807 2.54691 10.5872 2.06567 9.08565C2.29593 9.13073 2.53289 9.15326 2.77656 9.15326C3.12134 9.15326 3.45517 9.10819 3.77254 9.02108C2.04252 8.67385 0.739522 7.14486 0.739522 5.31494C0.739522 5.29849 0.739522 5.28265 0.740132 5.2662C1.24939 5.54946 1.83236 5.71942 2.45249 5.73952C1.43762 5.06031 0.77059 3.90473 0.77059 2.59259C0.77059 1.89998 0.956993 1.25 1.28229 0.692008C3.14693 2.9788 5.93263 4.48404 9.07468 4.6412C9.01011 4.36525 8.97661 4.0759 8.97661 3.77985C8.97661 1.69286 10.6689 0 12.7571 0C13.8444 0 14.8264 0.459308 15.516 1.19335C16.3773 1.02461 17.1863 0.709064 17.9167 0.27595C17.6334 1.15923 17.0346 1.89998 16.2537 2.3672C17.0194 2.27583 17.7479 2.07237 18.4253 1.77205C17.9197 2.53168 17.2783 3.19749 16.5394 3.73051Z" fill="white"/>
</svg>
