<svg width="14" height="17" viewBox="0 0 14 17" fill="none" xmlns="http://www.w3.org/2000/svg">
<path fill-rule="evenodd" clip-rule="evenodd" d="M13.5295 11.7701C12.4886 10.4805 11.1461 9.81348 8.87758 9.59924C8.46813 9.52112 8.15952 9.17722 8.15952 8.7688C8.15952 8.46974 9.17162 7.57446 9.16439 7.56783C10.209 6.54368 10.7691 4.87953 10.7691 3.60013C10.7691 1.61299 9.08193 0 6.99996 0C4.91799 0 3.23074 1.61299 3.23074 3.60013C3.23074 4.88649 3.77642 6.56061 4.83182 7.5848C4.83182 7.5848 5.84048 8.46977 5.84048 8.76884C5.84048 9.20116 5.49591 9.56164 5.05071 9.61288C2.82864 9.83407 1.50061 10.4974 0.470254 11.7702C0.172305 12.1377 0.0107074 12.876 0 13.2709C0.00355595 13.373 0 14.9723 0 14.9723C0 15.7243 0.642599 16.3333 1.43593 16.3333H12.564C13.3573 16.3333 14 15.7243 14 14.9723C14 14.9723 13.9965 13.373 14 13.2709C13.9894 12.876 13.8274 12.1376 13.5295 11.7701Z" fill="#4DB7FE"/>
</svg>
