<svg width="20" height="13" viewBox="0 0 20 13" fill="none" xmlns="http://www.w3.org/2000/svg">
<path fill-rule="evenodd" clip-rule="evenodd" d="M20 1.12424C20 1.67485 19.5324 2.12121 18.9556 2.12121H1.04445C0.467619 2.12121 0 1.67485 0 1.12424V0.99697C0 0.446364 0.467619 0 1.04445 0H18.9556C19.5324 0 20 0.446364 20 0.99697V1.12424ZM14.5111 7.42424C15.0879 7.42424 15.5556 6.97788 15.5556 6.42727V6.3C15.5556 5.74939 15.0879 5.30303 14.5111 5.30303H1.04445C0.467619 5.30303 0 5.74939 0 6.3V6.42727C0 6.97788 0.467619 7.42424 1.04445 7.42424H14.5111ZM9.47778 12.7273C9.76619 12.7273 10 12.2809 10 11.7303V11.603C10 11.0524 9.76619 10.6061 9.47778 10.6061H0.522223C0.23381 10.6061 0 11.0524 0 11.603V11.7303C0 12.2809 0.23381 12.7273 0.522223 12.7273H9.47778Z" fill="#949AA9"/>
</svg>
