<svg width="17" height="20" viewBox="0 0 17 20" fill="none" xmlns="http://www.w3.org/2000/svg">
<path fill-rule="evenodd" clip-rule="evenodd" d="M8.25 4.02435C7.08776 4.02435 6.00762 4.47025 5.20919 5.27835C4.41156 6.08483 4.02441 7.0708 4.02441 8.29421C4.02441 8.62743 4.29485 8.89786 4.62807 8.89786C4.96129 8.89786 5.23172 8.62743 5.23172 8.29421C5.23172 7.39275 5.49733 6.70378 6.06718 6.12668C6.63784 5.54959 7.41293 5.23166 8.25 5.23166C8.58322 5.23166 8.85366 4.96123 8.85366 4.62801C8.85366 4.29479 8.58322 4.02435 8.25 4.02435Z" fill="#949AA9"/>
<path fill-rule="evenodd" clip-rule="evenodd" d="M2.01424 16.0975C3.62157 14.1432 3.62157 12.2792 3.62157 8.2902C3.62157 6.98308 4.05942 5.87397 4.91983 4.99585C5.79473 4.11129 6.97709 3.62435 8.24959 3.62435C9.5221 3.62435 10.7045 4.11129 11.5777 4.99424C12.4398 5.87397 12.8776 6.98308 12.8776 8.2902C12.8776 12.2792 12.8776 14.1432 14.4849 16.0975H2.01424ZM8.24959 18.5121C7.54211 18.5121 6.96018 17.9857 6.86119 17.3048H9.638C9.5398 17.9857 8.95708 18.5121 8.24959 18.5121ZM8.24959 1.20731C8.58201 1.20731 8.85325 1.47855 8.85325 1.81097C8.85325 2.14338 8.58201 2.41462 8.24959 2.41462C7.91718 2.41462 7.64594 2.14338 7.64594 1.81097C7.64594 1.47855 7.91718 1.20731 8.24959 1.20731ZM16.3064 16.2576C14.1598 14.2728 14.0849 13.1701 14.0849 8.2902C14.0849 6.65631 13.532 5.26226 12.4374 4.14671C11.7154 3.41669 10.8268 2.90559 9.85129 2.63677C9.98007 2.38806 10.0606 2.10957 10.0606 1.81097C10.0606 0.812922 9.24764 0 8.24959 0C7.25155 0 6.43863 0.812922 6.43863 1.81097C6.43863 2.10957 6.51911 2.38806 6.64789 2.63677C5.67239 2.90559 4.783 3.41669 4.06023 4.14832C2.96801 5.26226 2.41426 6.65631 2.41426 8.2902C2.41426 13.1701 2.3394 14.2728 0.192807 16.2576C0.0109053 16.4267 -0.0486553 16.6899 0.0414905 16.9209C0.131636 17.1527 0.354586 17.3048 0.603292 17.3048H5.65387C5.75851 18.6521 6.87648 19.7194 8.24959 19.7194C9.62271 19.7194 10.7407 18.6521 10.8453 17.3048H15.8959C16.1446 17.3048 16.3675 17.1527 16.4577 16.9209C16.5486 16.6899 16.4883 16.4267 16.3064 16.2576Z" fill="#949AA9"/>
</svg>
