<svg width="19" height="13" viewBox="0 0 19 13" fill="none" xmlns="http://www.w3.org/2000/svg">
<path fill-rule="evenodd" clip-rule="evenodd" d="M1.23333 4.11111H17.2667V1.23333H1.23333V4.11111ZM17.8833 0H0.616667C0.276267 0 0 0.276267 0 0.616667V4.72778C0 5.06818 0.276267 5.34444 0.616667 5.34444H17.8833C18.2237 5.34444 18.5 5.06818 18.5 4.72778V0.616667C18.5 0.276267 18.2237 0 17.8833 0Z" fill="#949AA9"/>
<path fill-rule="evenodd" clip-rule="evenodd" d="M1.23333 11.5111H17.2667V8.63336H1.23333V11.5111ZM17.8833 7.40002H0.616667C0.276267 7.40002 0 7.67629 0 8.01669V12.1278C0 12.4682 0.276267 12.7445 0.616667 12.7445H17.8833C18.2237 12.7445 18.5 12.4682 18.5 12.1278V8.01669C18.5 7.67629 18.2237 7.40002 17.8833 7.40002Z" fill="#949AA9"/>
</svg>
