<svg width="18" height="20" viewBox="0 0 18 20" fill="none" xmlns="http://www.w3.org/2000/svg">
<path fill-rule="evenodd" clip-rule="evenodd" d="M13.4167 17.8889C11.809 17.8889 10.5 16.5807 10.5 14.9722C10.5 14.4822 10.6198 14.0078 10.8461 13.5987C10.8477 13.5963 10.8484 13.5948 10.85 13.5924C10.8508 13.5917 10.8508 13.5901 10.8516 13.5893C11.3556 12.6436 12.3379 12.0556 13.4167 12.0556C15.0243 12.0556 16.3333 13.3638 16.3333 14.9722C16.3333 16.5807 15.0243 17.8889 13.4167 17.8889ZM3.30556 11.6667C2.12567 11.6667 1.16667 10.7077 1.16667 9.52778C1.16667 8.34789 2.12567 7.38889 3.30556 7.38889C4.08722 7.38889 4.80744 7.81978 5.187 8.51278C5.18778 8.51356 5.18856 8.51433 5.18933 8.51589C5.18933 8.51667 5.19011 8.51744 5.19089 8.51822C5.35656 8.81922 5.44444 9.16844 5.44444 9.52778C5.44444 9.88711 5.35656 10.2363 5.18933 10.5397C4.81056 11.235 4.08878 11.6667 3.30556 11.6667ZM13.4167 1.16667C15.0243 1.16667 16.3333 2.47489 16.3333 4.08333C16.3333 5.69178 15.0243 7 13.4167 7C12.3604 7 11.3913 6.43378 10.8764 5.51911C10.8679 5.49733 10.8578 5.47711 10.8461 5.45689C10.6198 5.04778 10.5 4.57333 10.5 4.08333C10.5 2.47489 11.809 1.16667 13.4167 1.16667ZM13.4167 10.8889C12.1046 10.8889 10.8943 11.5119 10.1352 12.5448L6.44156 10.5552C6.54967 10.227 6.61111 9.88089 6.61111 9.52778C6.61111 9.17467 6.54967 8.82933 6.44156 8.50111L10.1376 6.51622C10.8998 7.546 12.1092 8.16667 13.4167 8.16667C15.6683 8.16667 17.5 6.335 17.5 4.08333C17.5 1.83167 15.6683 0 13.4167 0C11.165 0 9.33333 1.83167 9.33333 4.08333C9.33333 4.56944 9.42044 5.04622 9.58456 5.49033L5.88622 7.47522C5.26322 6.69356 4.31978 6.22222 3.30556 6.22222C1.48244 6.22222 0 7.70544 0 9.52778C0 11.3501 1.48244 12.8333 3.30556 12.8333C4.32056 12.8333 5.26322 12.3612 5.88544 11.5811L9.58456 13.573C9.422 14.0148 9.33333 14.4884 9.33333 14.9722C9.33333 17.2239 11.165 19.0556 13.4167 19.0556C15.6683 19.0556 17.5 17.2239 17.5 14.9722C17.5 12.7206 15.6683 10.8889 13.4167 10.8889Z" fill="#949AA9"/>
</svg>
