<svg width="22" height="22" viewBox="0 0 22 22" fill="none" xmlns="http://www.w3.org/2000/svg">
<path d="M16.9575 22C16.7208 22.0001 16.4956 21.8979 16.3397 21.7198L12.0048 16.7649H3.52985C1.58115 16.7625 0.00211075 15.1832 0 13.2345V3.5304C0.00211075 1.5817 1.58115 0.00241285 3.52985 0H18.4701C20.4188 0.00241285 21.9979 1.5817 22 3.5304V13.2345C21.9979 15.1832 20.4188 16.7625 18.4701 16.7649H17.7784V21.1791C17.7784 21.6325 17.4109 22 16.9575 22Z" fill="#2D3F6E"/>
<path d="M7.96219 11.8209C7.74421 11.8205 7.53518 11.7342 7.38045 11.5806C7.36184 11.5615 7.34378 11.5412 7.32572 11.5204C7.30876 11.4997 7.29287 11.4782 7.27811 11.4558C7.26315 11.4336 7.24947 11.4106 7.23707 11.3869C7.22448 11.3634 7.21299 11.3387 7.20259 11.3141C7.19219 11.2895 7.18344 11.2638 7.17523 11.2386C7.16702 11.2134 7.161 11.1839 7.15552 11.1603C7.15005 11.1368 7.14622 11.1056 7.14348 11.081C7.14084 11.054 7.13956 11.027 7.13965 11C7.13955 10.9731 7.14083 10.9463 7.14348 10.9195C7.14622 10.8927 7.1506 10.8648 7.15552 10.8396C7.16045 10.8144 7.16756 10.7849 7.17523 10.7619C7.18289 10.7389 7.19219 10.7105 7.20259 10.6858C7.21299 10.6612 7.22448 10.6371 7.23707 10.6136C7.24957 10.5898 7.26327 10.5666 7.27811 10.5441C7.29289 10.5222 7.30876 10.5003 7.32572 10.4795C7.34269 10.4587 7.3613 10.4385 7.38045 10.4193C7.55493 10.2465 7.79704 10.1599 8.04154 10.1829C8.06836 10.1856 8.09627 10.19 8.12145 10.1949C8.14662 10.1999 8.17617 10.207 8.19916 10.2146C8.22214 10.2223 8.2506 10.2316 8.27523 10.242C8.29985 10.2524 8.32393 10.2639 8.34747 10.2765C8.371 10.2891 8.39453 10.3028 8.41697 10.3175C8.43941 10.3323 8.46075 10.3482 8.48154 10.3651C8.50234 10.3821 8.52259 10.4007 8.5412 10.4199C8.5598 10.439 8.57841 10.4593 8.59592 10.4801C8.61344 10.5009 8.62876 10.5228 8.64353 10.5446C8.65838 10.5671 8.67208 10.5903 8.68458 10.6141C8.69735 10.6379 8.70884 10.6619 8.71906 10.6864C8.72946 10.711 8.73821 10.7367 8.74642 10.7625C8.75463 10.7882 8.76065 10.8139 8.76612 10.8402C8.77159 10.8664 8.77543 10.8949 8.77816 10.9201C8.7809 10.9452 8.78199 10.9748 8.78199 11.0005C8.78199 11.0262 8.78199 11.0552 8.77816 11.0815C8.77433 11.1078 8.77105 11.1362 8.76612 11.1609C8.7612 11.1855 8.75408 11.2156 8.74642 11.2391C8.73876 11.2627 8.72946 11.29 8.71906 11.3146C8.70866 11.3393 8.69717 11.3639 8.68458 11.3874C8.67199 11.411 8.65831 11.434 8.64353 11.4564C8.62876 11.4788 8.61234 11.5002 8.59592 11.521C8.5795 11.5418 8.56035 11.562 8.5412 11.5812C8.52204 11.6003 8.50234 11.6184 8.48154 11.6359C8.46075 11.6534 8.43886 11.6687 8.41697 11.6835C8.39508 11.6983 8.371 11.712 8.34747 11.7245C8.32393 11.7371 8.29985 11.7486 8.27523 11.759C8.2506 11.7694 8.22488 11.7782 8.19916 11.7864C8.17344 11.7946 8.14771 11.8006 8.12145 11.8061C8.09518 11.8116 8.06672 11.8154 8.04154 11.8181C8.01637 11.8209 7.98901 11.8209 7.96219 11.8209Z" fill="white"/>
<path d="M14.0373 11.8209C14.0104 11.8209 13.9825 11.8209 13.9568 11.8171C13.9311 11.8132 13.9021 11.81 13.8769 11.805C13.8517 11.8001 13.8222 11.793 13.7987 11.7853C13.7751 11.7777 13.7478 11.7684 13.7231 11.758C13.6985 11.7476 13.6744 11.7361 13.6509 11.7235C13.6271 11.711 13.6039 11.6973 13.5814 11.6825C13.5595 11.6677 13.5376 11.6518 13.5168 11.6348C13.496 11.6179 13.4758 11.5993 13.4566 11.5801C13.4375 11.561 13.4194 11.5407 13.4019 11.5199C13.3844 11.4991 13.3691 11.4772 13.3543 11.4553C13.3394 11.4329 13.3257 11.4097 13.3132 11.3858C13.3005 11.3621 13.289 11.338 13.2788 11.3136C13.2684 11.289 13.2596 11.2632 13.2514 11.2381C13.2432 11.2129 13.2372 11.1833 13.2317 11.1598C13.2262 11.1363 13.2224 11.1051 13.2197 11.0805C13.2169 11.0558 13.2158 11.0257 13.2158 10.9995C13.2158 10.9732 13.2158 10.9447 13.2197 10.9185C13.2235 10.8922 13.2268 10.8637 13.2317 10.8391C13.2366 10.8145 13.2437 10.7844 13.2514 10.7609C13.2591 10.7373 13.2684 10.71 13.2788 10.6853C13.2892 10.6607 13.3006 10.6361 13.3132 10.6126C13.3258 10.589 13.3395 10.566 13.3543 10.5436C13.369 10.5213 13.3849 10.4997 13.4019 10.479C13.4189 10.4582 13.4375 10.438 13.4566 10.4188C13.4758 10.3997 13.496 10.3816 13.5168 10.3641C13.5376 10.3466 13.5595 10.3313 13.5814 10.3165C13.6039 10.3016 13.6271 10.2879 13.6509 10.2754C13.6746 10.263 13.6987 10.2515 13.7231 10.241C13.7478 10.2306 13.7735 10.2218 13.7987 10.2136C13.8238 10.2054 13.8534 10.1994 13.8769 10.1939C13.9004 10.1884 13.9316 10.1846 13.9568 10.1819C14.0105 10.1769 14.0646 10.1769 14.1183 10.1819C14.1445 10.1846 14.173 10.189 14.1976 10.1939C14.2222 10.1988 14.2523 10.2059 14.2759 10.2136C14.2994 10.2213 14.3268 10.2306 14.3514 10.241C14.376 10.2514 14.4001 10.2629 14.4236 10.2754C14.4475 10.2879 14.4707 10.3016 14.4931 10.3165C14.515 10.3313 14.5369 10.3471 14.5577 10.3641C14.5785 10.3811 14.5988 10.3997 14.6179 10.4188C14.6371 10.438 14.6551 10.4582 14.6726 10.479C14.6896 10.4997 14.7055 10.5213 14.7202 10.5436C14.7348 10.5662 14.7485 10.5892 14.7613 10.6126C14.7739 10.6361 14.7854 10.6607 14.7958 10.6853C14.8062 10.71 14.8149 10.7357 14.8231 10.7609C14.8313 10.786 14.8374 10.8156 14.8428 10.8391C14.8483 10.8627 14.8521 10.8938 14.8549 10.9185C14.8601 10.9731 14.8601 11.0281 14.8549 11.0827C14.8521 11.1089 14.8478 11.1374 14.8428 11.162C14.8379 11.1866 14.8308 11.2167 14.8231 11.2403C14.8155 11.2638 14.8062 11.2912 14.7958 11.3158C14.7854 11.3404 14.7739 11.3645 14.7613 11.388C14.7488 11.4119 14.7351 11.4351 14.7202 11.4575C14.7055 11.4794 14.6896 11.5013 14.6726 11.5221C14.6557 11.5429 14.6371 11.5631 14.6179 11.5823C14.5988 11.6015 14.5785 11.6195 14.5577 11.637C14.5369 11.6545 14.515 11.6699 14.4931 11.6846C14.4707 11.6995 14.4475 11.7132 14.4236 11.7257C14.3999 11.7381 14.3758 11.7496 14.3514 11.7602C14.3268 11.7706 14.301 11.7793 14.2759 11.7875C14.2507 11.7957 14.2239 11.8018 14.1976 11.8072C14.1713 11.8127 14.1429 11.8165 14.1183 11.8193C14.0936 11.822 14.0641 11.8209 14.0373 11.8209Z" fill="white"/>
<path d="M10.9996 11.8209C10.9727 11.821 10.9459 11.8197 10.9192 11.8171C10.8923 11.8143 10.8644 11.81 10.8393 11.805C10.8141 11.8001 10.7873 11.793 10.7616 11.7853C10.7358 11.7777 10.7107 11.7684 10.686 11.758C10.6614 11.7476 10.6368 11.7361 10.6132 11.7235C10.5659 11.6982 10.521 11.6686 10.4792 11.6348C10.4584 11.6179 10.4381 11.5993 10.4195 11.5801C10.4003 11.561 10.382 11.5409 10.3648 11.5199C10.3478 11.4991 10.3314 11.4772 10.3166 11.4553C10.3018 11.4329 10.2881 11.4097 10.2756 11.3858C10.2632 11.3621 10.2517 11.338 10.2411 11.3136C10.2313 11.289 10.2219 11.2633 10.2143 11.2375C10.2063 11.212 10.1997 11.1861 10.1946 11.1598C10.1839 11.1071 10.1785 11.0533 10.1787 10.9995C10.1786 10.9724 10.1799 10.9454 10.1825 10.9185C10.1852 10.8918 10.1892 10.8654 10.1946 10.8391C10.1998 10.8127 10.2064 10.7866 10.2143 10.7609C10.2219 10.7357 10.2313 10.71 10.2411 10.6853C10.251 10.6607 10.263 10.6366 10.2756 10.6131C10.2881 10.5893 10.3018 10.5661 10.3166 10.5436C10.3314 10.5217 10.3478 10.4998 10.3648 10.479C10.382 10.458 10.4003 10.438 10.4195 10.4188C10.4381 10.4002 10.4584 10.3816 10.4792 10.3641C10.521 10.3304 10.5659 10.3007 10.6132 10.2754C10.6368 10.2629 10.6614 10.2514 10.686 10.241C10.7107 10.2306 10.7358 10.2218 10.7616 10.2136C10.7873 10.2054 10.8135 10.1994 10.8393 10.1939C10.865 10.1884 10.894 10.1846 10.9192 10.1819C10.9738 10.1768 11.0287 10.1768 11.0833 10.1819C11.1102 10.1846 11.1381 10.189 11.1627 10.1939C11.1873 10.1988 11.2174 10.2059 11.241 10.2136C11.2645 10.2213 11.2918 10.2306 11.3165 10.241C11.3411 10.2514 11.3657 10.2629 11.3893 10.2754C11.4128 10.288 11.4358 10.3017 11.4582 10.3165C11.4807 10.3312 11.5025 10.3471 11.5233 10.3641C11.5441 10.3811 11.5644 10.3997 11.583 10.4188C11.6022 10.438 11.6205 10.458 11.6377 10.479C11.6547 10.4998 11.6706 10.5217 11.6859 10.5436C11.7007 10.5661 11.7144 10.5893 11.7269 10.6131C11.7396 10.6365 11.7509 10.6607 11.7609 10.6853C11.7713 10.71 11.7804 10.7352 11.7882 10.7609C11.7959 10.7866 11.8024 10.8156 11.8079 10.8391C11.8133 10.8654 11.8173 10.8918 11.82 10.9185C11.8226 10.9454 11.8239 10.9724 11.8238 10.9995C11.824 11.0533 11.8187 11.1071 11.8079 11.1598C11.8024 11.1861 11.7959 11.2145 11.7882 11.2375C11.7805 11.2634 11.7714 11.2888 11.7609 11.3136C11.7509 11.3383 11.7396 11.3624 11.7269 11.3858C11.7143 11.4094 11.7007 11.4329 11.6859 11.4553C11.6711 11.4778 11.6547 11.4991 11.6377 11.5199C11.6205 11.5409 11.6022 11.561 11.583 11.5801C11.5644 11.5987 11.5441 11.6173 11.5233 11.6348C11.5025 11.6518 11.4807 11.6677 11.4582 11.6825C11.436 11.6971 11.413 11.7107 11.3893 11.7235C11.3657 11.7361 11.3411 11.7476 11.3165 11.758C11.2918 11.7684 11.2667 11.7771 11.241 11.7853C11.2152 11.7936 11.189 11.7996 11.1627 11.805C11.1364 11.8105 11.108 11.8143 11.0833 11.8171C11.0555 11.8198 11.0276 11.8211 10.9996 11.8209Z" fill="white"/>
</svg>
