<svg width="22" height="22" viewBox="0 0 22 22" fill="none" xmlns="http://www.w3.org/2000/svg">
<path fill-rule="evenodd" clip-rule="evenodd" d="M16.3397 21.7198C16.4956 21.8979 16.7208 22.0001 16.9575 22C17.4109 22 17.7784 21.6325 17.7784 21.1791V16.7649H18.4701C20.4188 16.7625 21.9979 15.1832 22 13.2345V3.5304C21.9979 1.5817 20.4188 0.00241285 18.4701 0H3.52985C1.58115 0.00241285 0.00211075 1.5817 0 3.5304V13.2345C0.00211075 15.1832 1.58115 16.7625 3.52985 16.7649H12.0048L16.3397 21.7198ZM1.64179 3.5304C1.643 2.48806 2.48752 1.6433 3.52985 1.64179H18.4696C19.5111 1.6445 20.3543 2.48891 20.3555 3.5304V13.2345C20.3543 14.2768 19.5097 15.1216 18.4674 15.1231H16.9575C16.5041 15.1231 16.1366 15.4906 16.1366 15.944V18.995L12.9948 15.4033C12.8389 15.2252 12.6136 15.123 12.3769 15.1231H3.52985C2.48752 15.1216 1.643 14.2768 1.64179 13.2345V3.5304Z" fill="#949AA9"/>
<path d="M7.96214 11.8209C7.74416 11.8205 7.53513 11.7342 7.3804 11.5806C7.36179 11.5615 7.34373 11.5412 7.32567 11.5204C7.30871 11.4997 7.29282 11.4782 7.27806 11.4558C7.2631 11.4336 7.24942 11.4106 7.23701 11.3869C7.22443 11.3634 7.21293 11.3387 7.20254 11.3141C7.19214 11.2895 7.18338 11.2638 7.17517 11.2386C7.16696 11.2134 7.16094 11.1839 7.15547 11.1603C7.15 11.1368 7.14617 11.1056 7.14343 11.081C7.14079 11.054 7.13951 11.027 7.1396 11C7.1395 10.9731 7.14078 10.9463 7.14343 10.9195C7.14617 10.8927 7.15055 10.8648 7.15547 10.8396C7.1604 10.8144 7.16751 10.7849 7.17517 10.7619C7.18283 10.7389 7.19214 10.7105 7.20254 10.6858C7.21293 10.6612 7.22443 10.6371 7.23701 10.6136C7.24952 10.5898 7.26321 10.5666 7.27806 10.5441C7.29283 10.5222 7.30871 10.5003 7.32567 10.4795C7.34264 10.4587 7.36124 10.4385 7.3804 10.4193C7.55487 10.2465 7.79699 10.1599 8.04149 10.1829C8.06831 10.1856 8.09622 10.19 8.12139 10.1949C8.14657 10.1999 8.17612 10.207 8.1991 10.2146C8.22209 10.2223 8.25055 10.2316 8.27517 10.242C8.2998 10.2524 8.32388 10.2639 8.34741 10.2765C8.37094 10.2891 8.39448 10.3028 8.41691 10.3175C8.43935 10.3323 8.4607 10.3482 8.48149 10.3651C8.50229 10.3821 8.52254 10.4007 8.54114 10.4199C8.55975 10.439 8.57836 10.4593 8.59587 10.4801C8.61338 10.5009 8.62871 10.5228 8.64348 10.5446C8.65833 10.5671 8.67202 10.5903 8.68453 10.6141C8.6973 10.6379 8.70879 10.6619 8.719 10.6864C8.7294 10.711 8.73816 10.7367 8.74637 10.7625C8.75458 10.7882 8.7606 10.8139 8.76607 10.8402C8.77154 10.8664 8.77537 10.8949 8.77811 10.9201C8.78084 10.9452 8.78194 10.9748 8.78194 11.0005C8.78194 11.0262 8.78194 11.0552 8.77811 11.0815C8.77428 11.1078 8.77099 11.1362 8.76607 11.1609C8.76114 11.1855 8.75403 11.2156 8.74637 11.2391C8.73871 11.2627 8.7294 11.29 8.719 11.3146C8.70861 11.3393 8.69711 11.3639 8.68453 11.3874C8.67194 11.411 8.65826 11.434 8.64348 11.4564C8.62871 11.4788 8.61229 11.5002 8.59587 11.521C8.57945 11.5418 8.5603 11.562 8.54114 11.5812C8.52199 11.6003 8.50229 11.6184 8.48149 11.6359C8.4607 11.6534 8.4388 11.6687 8.41691 11.6835C8.39502 11.6983 8.37094 11.712 8.34741 11.7245C8.32388 11.7371 8.2998 11.7486 8.27517 11.759C8.25055 11.7694 8.22482 11.7782 8.1991 11.7864C8.17338 11.7946 8.14766 11.8006 8.12139 11.8061C8.09512 11.8116 8.06667 11.8154 8.04149 11.8181C8.01632 11.8209 7.98895 11.8209 7.96214 11.8209Z" fill="#949AA9"/>
<path d="M14.0373 11.8209C14.0105 11.8209 13.9826 11.8209 13.9569 11.8171C13.9311 11.8132 13.9021 11.81 13.877 11.805C13.8518 11.8001 13.8222 11.793 13.7987 11.7853C13.7752 11.7777 13.7478 11.7684 13.7232 11.758C13.6986 11.7476 13.6745 11.7361 13.6509 11.7235C13.6271 11.711 13.6039 11.6973 13.5814 11.6825C13.5596 11.6677 13.5377 11.6518 13.5169 11.6348C13.4961 11.6179 13.4758 11.5993 13.4567 11.5801C13.4375 11.561 13.4195 11.5407 13.4019 11.5199C13.3844 11.4991 13.3691 11.4772 13.3543 11.4553C13.3395 11.4329 13.3258 11.4097 13.3133 11.3858C13.3005 11.3621 13.289 11.338 13.2788 11.3136C13.2684 11.289 13.2597 11.2632 13.2514 11.2381C13.2432 11.2129 13.2372 11.1833 13.2317 11.1598C13.2263 11.1363 13.2224 11.1051 13.2197 11.0805C13.217 11.0558 13.2159 11.0257 13.2159 10.9995C13.2159 10.9732 13.2159 10.9447 13.2197 10.9185C13.2235 10.8922 13.2268 10.8637 13.2317 10.8391C13.2367 10.8145 13.2438 10.7844 13.2514 10.7609C13.2591 10.7373 13.2684 10.71 13.2788 10.6853C13.2892 10.6607 13.3007 10.6361 13.3133 10.6126C13.3259 10.589 13.3396 10.566 13.3543 10.5436C13.3691 10.5213 13.385 10.4997 13.4019 10.479C13.4189 10.4582 13.4375 10.438 13.4567 10.4188C13.4758 10.3997 13.4961 10.3816 13.5169 10.3641C13.5377 10.3466 13.5596 10.3313 13.5814 10.3165C13.6039 10.3016 13.6271 10.2879 13.6509 10.2754C13.6747 10.263 13.6987 10.2515 13.7232 10.241C13.7478 10.2306 13.7735 10.2218 13.7987 10.2136C13.8239 10.2054 13.8534 10.1994 13.877 10.1939C13.9005 10.1884 13.9317 10.1846 13.9569 10.1819C14.0106 10.1769 14.0646 10.1769 14.1183 10.1819C14.1446 10.1846 14.173 10.189 14.1977 10.1939C14.2223 10.1988 14.2524 10.2059 14.2759 10.2136C14.2995 10.2213 14.3268 10.2306 14.3514 10.241C14.3761 10.2514 14.4002 10.2629 14.4237 10.2754C14.4475 10.2879 14.4707 10.3016 14.4932 10.3165C14.5151 10.3313 14.537 10.3471 14.5578 10.3641C14.5786 10.3811 14.5988 10.3997 14.618 10.4188C14.6371 10.438 14.6552 10.4582 14.6727 10.479C14.6897 10.4997 14.7055 10.5213 14.7203 10.5436C14.7349 10.5662 14.7486 10.5892 14.7613 10.6126C14.7739 10.6361 14.7854 10.6607 14.7958 10.6853C14.8062 10.71 14.815 10.7357 14.8232 10.7609C14.8314 10.786 14.8374 10.8156 14.8429 10.8391C14.8484 10.8627 14.8522 10.8938 14.8549 10.9185C14.8602 10.9731 14.8602 11.0281 14.8549 11.0827C14.8522 11.1089 14.8478 11.1374 14.8429 11.162C14.838 11.1866 14.8308 11.2167 14.8232 11.2403C14.8155 11.2638 14.8062 11.2912 14.7958 11.3158C14.7854 11.3404 14.7739 11.3645 14.7613 11.388C14.7488 11.4119 14.7351 11.4351 14.7203 11.4575C14.7055 11.4794 14.6897 11.5013 14.6727 11.5221C14.6557 11.5429 14.6371 11.5631 14.618 11.5823C14.5988 11.6015 14.5786 11.6195 14.5578 11.637C14.537 11.6545 14.5151 11.6699 14.4932 11.6846C14.4707 11.6995 14.4475 11.7132 14.4237 11.7257C14.4 11.7381 14.3759 11.7496 14.3514 11.7602C14.3268 11.7706 14.3011 11.7793 14.2759 11.7875C14.2507 11.7957 14.2239 11.8018 14.1977 11.8072C14.1714 11.8127 14.1429 11.8165 14.1183 11.8193C14.0937 11.822 14.0641 11.8209 14.0373 11.8209Z" fill="#949AA9"/>
<path d="M10.9995 11.8209C10.9726 11.821 10.9457 11.8197 10.919 11.8171C10.8922 11.8143 10.8643 11.81 10.8391 11.805C10.8139 11.8001 10.7871 11.793 10.7614 11.7853C10.7357 11.7777 10.7105 11.7684 10.6859 11.758C10.6612 11.7476 10.6366 11.7361 10.6131 11.7235C10.5657 11.6982 10.5208 11.6686 10.479 11.6348C10.4582 11.6179 10.438 11.5993 10.4194 11.5801C10.4001 11.561 10.3818 11.5409 10.3646 11.5199C10.3477 11.4991 10.3312 11.4772 10.3165 11.4553C10.3016 11.4329 10.2879 11.4097 10.2754 11.3858C10.263 11.3621 10.2515 11.338 10.2409 11.3136C10.2311 11.289 10.2218 11.2633 10.2141 11.2375C10.2061 11.212 10.1996 11.1861 10.1944 11.1598C10.1837 11.1071 10.1784 11.0533 10.1786 10.9995C10.1785 10.9724 10.1797 10.9454 10.1824 10.9185C10.1851 10.8918 10.1891 10.8654 10.1944 10.8391C10.1996 10.8127 10.2062 10.7866 10.2141 10.7609C10.2218 10.7357 10.2311 10.71 10.2409 10.6853C10.2508 10.6607 10.2628 10.6366 10.2754 10.6131C10.2879 10.5893 10.3016 10.5661 10.3165 10.5436C10.3312 10.5217 10.3477 10.4998 10.3646 10.479C10.3818 10.458 10.4001 10.438 10.4194 10.4188C10.438 10.4002 10.4582 10.3816 10.479 10.3641C10.5208 10.3304 10.5657 10.3007 10.6131 10.2754C10.6366 10.2629 10.6612 10.2514 10.6859 10.241C10.7105 10.2306 10.7357 10.2218 10.7614 10.2136C10.7871 10.2054 10.8134 10.1994 10.8391 10.1939C10.8648 10.1884 10.8938 10.1846 10.919 10.1819C10.9736 10.1768 11.0286 10.1768 11.0832 10.1819C11.11 10.1846 11.1379 10.189 11.1625 10.1939C11.1872 10.1988 11.2173 10.2059 11.2408 10.2136C11.2643 10.2213 11.2917 10.2306 11.3163 10.241C11.3409 10.2514 11.3656 10.2629 11.3891 10.2754C11.4126 10.288 11.4356 10.3017 11.4581 10.3165C11.4806 10.3312 11.5023 10.3471 11.5232 10.3641C11.544 10.3811 11.5642 10.3997 11.5828 10.4188C11.6021 10.438 11.6203 10.458 11.6376 10.479C11.6545 10.4998 11.6704 10.5217 11.6857 10.5436C11.7006 10.5661 11.7143 10.5893 11.7268 10.6131C11.7394 10.6365 11.7507 10.6607 11.7607 10.6853C11.7711 10.71 11.7802 10.7352 11.7881 10.7609C11.7957 10.7866 11.8023 10.8156 11.8078 10.8391C11.8131 10.8654 11.8171 10.8918 11.8198 10.9185C11.8224 10.9454 11.8237 10.9724 11.8236 10.9995C11.8238 11.0533 11.8185 11.1071 11.8078 11.1598C11.8023 11.1861 11.7957 11.2145 11.7881 11.2375C11.7803 11.2634 11.7712 11.2888 11.7607 11.3136C11.7507 11.3383 11.7394 11.3624 11.7268 11.3858C11.7142 11.4094 11.7005 11.4329 11.6857 11.4553C11.6709 11.4778 11.6545 11.4991 11.6376 11.5199C11.6203 11.5409 11.6021 11.561 11.5828 11.5801C11.5642 11.5987 11.544 11.6173 11.5232 11.6348C11.5023 11.6518 11.4806 11.6677 11.4581 11.6825C11.4358 11.6971 11.4128 11.7107 11.3891 11.7235C11.3656 11.7361 11.3409 11.7476 11.3163 11.758C11.2917 11.7684 11.2665 11.7771 11.2408 11.7853C11.2151 11.7936 11.1888 11.7996 11.1625 11.805C11.1363 11.8105 11.1078 11.8143 11.0832 11.8171C11.0554 11.8198 11.0274 11.8211 10.9995 11.8209Z" fill="#949AA9"/>
</svg>
