<svg width="28" height="28" viewBox="0 0 28 28" fill="none" xmlns="http://www.w3.org/2000/svg">
<circle cx="14" cy="14" r="14" fill="#4DB7FE"/>
<path fill-rule="evenodd" clip-rule="evenodd" d="M12.3376 10.0694H15.3563C15.5136 10.0741 15.664 10.0037 15.7627 9.87917C15.8615 9.75466 15.8973 9.59034 15.8595 9.43507L15.3563 7.38898C15.2996 7.15512 15.09 6.9932 14.8532 7.00022H12.8407C12.6039 6.9932 12.3944 7.15512 12.3376 7.38898L11.8345 9.43507C11.7966 9.59034 11.8324 9.75466 11.9312 9.87917C12.03 10.0037 12.1803 10.0741 12.3376 10.0694ZM14.7123 9.04632H12.9816L13.2332 8.02327H14.4608L14.7123 9.04632Z" fill="white"/>
<path fill-rule="evenodd" clip-rule="evenodd" d="M20.7196 13.4454L19.2102 13.1897L17.7009 10.1768C17.3654 9.49487 16.6847 9.05918 15.9349 9.04633H11.3715C10.5312 9.04569 9.77895 9.57596 9.48483 10.3763L8.47858 13.1385H7.80942C6.97582 13.1385 6.30005 13.8256 6.30005 14.6731V17.2307C6.30005 18.0782 6.97582 18.7653 7.80942 18.7653H8.38299C8.63634 19.7629 9.57981 20.4134 10.5852 20.2836C11.5905 20.1537 12.3441 19.2841 12.3441 18.2538C12.3441 17.2234 11.5905 16.3538 10.5852 16.224C9.57981 16.0941 8.63634 16.7446 8.38299 17.7422H7.80942C7.53156 17.7422 7.3063 17.5132 7.3063 17.2307V14.6731C7.3063 14.3906 7.53156 14.1616 7.80942 14.1616H18.8379L20.5536 14.4531C21.0437 14.5364 21.4006 14.971 21.3938 15.4762V15.6961H20.8907C20.6128 15.6961 20.3875 15.9252 20.3875 16.2077C20.3875 16.4902 20.6128 16.7192 20.8907 16.7192H21.3938V17.2307C21.3938 17.5132 21.1685 17.7422 20.8907 17.7422H20.3171C20.0789 16.8512 19.2833 16.2327 18.375 16.2327C17.4668 16.2327 16.6712 16.8512 16.433 17.7422H13.8469C13.5691 17.7422 13.3438 17.9713 13.3438 18.2538C13.3438 18.5363 13.5691 18.7653 13.8469 18.7653H16.433C16.6712 19.6563 17.4668 20.2748 18.375 20.2748C19.2833 20.2748 20.0789 19.6563 20.3171 18.7653H20.8907C21.7243 18.7653 22.4 18.0782 22.4 17.2307V15.4608C22.3988 14.4621 21.6885 13.6102 20.7196 13.4454ZM10.325 17.2307C10.8808 17.2307 11.3313 17.6887 11.3313 18.2538C11.3313 18.8188 10.8808 19.2768 10.325 19.2768C9.76931 19.2768 9.3188 18.8188 9.3188 18.2538C9.3188 17.6887 9.76931 17.2307 10.325 17.2307ZM11.3715 10.0694C10.9523 10.0701 10.5774 10.3351 10.4307 10.7344L9.54017 13.1385H13.3438V10.0694H11.3715ZM14.35 13.1385V10.0694H15.9349C16.3149 10.0715 16.6613 10.2911 16.8305 10.6372L18.0631 13.1385H14.35ZM17.3688 18.2538C17.3688 18.8188 17.8193 19.2768 18.375 19.2768C18.9308 19.2768 19.3813 18.8188 19.3813 18.2538C19.3813 17.6887 18.9308 17.2307 18.375 17.2307C17.8193 17.2307 17.3688 17.6887 17.3688 18.2538Z" fill="white"/>
</svg>
