<svg width="28" height="28" viewBox="0 0 28 28" fill="none" xmlns="http://www.w3.org/2000/svg">
<circle cx="14" cy="14" r="14" fill="#4DB7FE"/>
<path d="M11.1154 20.9997C10.9803 21.0046 10.8509 20.9471 10.7672 20.8451C10.6835 20.7431 10.6557 20.6088 10.6923 20.4838L11.5385 17.6401C11.57 17.4908 11.6858 17.371 11.8386 17.3298C11.9913 17.2885 12.1552 17.3328 12.2632 17.4444C12.3711 17.5561 12.4049 17.7163 12.3508 17.8595L11.5046 20.7032C11.4554 20.8725 11.2983 20.9922 11.1154 20.9997Z" fill="white"/>
<path d="M17.8846 20.9997C17.6891 21.0066 17.5142 20.884 17.4615 20.7031L16.6154 17.8594C16.5523 17.6351 16.6905 17.4041 16.9242 17.3435C17.1579 17.2829 17.3984 17.4157 17.4615 17.6401L18.3077 20.4837C18.3443 20.6087 18.3164 20.743 18.2328 20.845C18.1491 20.947 18.0197 21.0045 17.8846 20.9997Z" fill="white"/>
<path d="M17.5208 19.781H11.4792C11.2456 19.781 11.0562 19.5991 11.0562 19.3747C11.0562 19.1504 11.2456 18.9685 11.4792 18.9685H17.5208C17.7544 18.9685 17.9438 19.1504 17.9438 19.3747C17.9438 19.5991 17.7544 19.781 17.5208 19.781Z" fill="white"/>
<path fill-rule="evenodd" clip-rule="evenodd" d="M19.1538 11.319C18.9719 9.43253 17.3192 7.99199 15.3462 8.00007H13.6538C11.6808 7.99199 10.0281 9.43253 9.84615 11.319C9.33881 11.4913 8.99972 11.952 9 12.4687V12.8749C9 13.0993 9.18942 13.2812 9.42308 13.2812C9.65674 13.2812 9.84615 13.0993 9.84615 12.8749V12.4687C9.84615 12.2443 10.0356 12.0625 10.2692 12.0625C10.5029 12.0625 10.6923 12.2443 10.6923 12.4687V15.3124C10.6923 15.9854 11.2606 16.5311 11.9615 16.5311H17.0385C17.7394 16.5311 18.3077 15.9854 18.3077 15.3124V12.4687C18.3077 12.2443 18.4971 12.0625 18.7308 12.0625C18.9644 12.0625 19.1538 12.2443 19.1538 12.4687V15.3124C19.1538 15.8511 18.931 16.3677 18.5343 16.7486C18.1376 17.1296 17.5995 17.3436 17.0385 17.3436H11.9615C10.7932 17.3436 9.84615 16.4342 9.84615 15.3124V14.4999C9.84615 14.2755 9.65674 14.0937 9.42308 14.0937C9.18942 14.0937 9 14.2755 9 14.4999V15.3124C9 16.8829 10.3259 18.156 11.9615 18.156H17.0385C18.6741 18.156 20 16.8829 20 15.3124V12.4687C20.0003 11.952 19.6612 11.4913 19.1538 11.319ZM13.6538 8.81255H15.3462C16.8582 8.80304 18.1349 9.88882 18.3077 11.3312C17.8047 11.502 17.4666 11.9565 17.4615 12.4687V14.0937H11.5385V12.4687C11.5367 11.9617 11.2081 11.5087 10.7135 11.3312C10.8853 9.89655 12.1499 8.8134 13.6538 8.81255ZM11.9615 15.7186H17.0385C17.2721 15.7186 17.4615 15.5367 17.4615 15.3124V14.9061H11.5385V15.3124C11.5385 15.5367 11.7279 15.7186 11.9615 15.7186Z" fill="white"/>
</svg>
