<svg width="28" height="28" viewBox="0 0 28 28" fill="none" xmlns="http://www.w3.org/2000/svg">
<circle cx="14" cy="14" r="14" fill="#4DB7FE"/>
<path fill-rule="evenodd" clip-rule="evenodd" d="M10.9375 11.6667C10.9375 11.9244 11.1334 12.1333 11.375 12.1333H16.625C16.741 12.1333 16.8523 12.0842 16.9343 11.9967C17.0164 11.9091 17.0625 11.7905 17.0625 11.6667V11.2C17.0625 9.39589 15.6913 7.93335 14 7.93335C12.3086 7.93335 10.9375 9.39589 10.9375 11.2V11.6667ZM14 8.86668C15.2081 8.86668 16.1875 9.91135 16.1875 11.2H11.8125C11.8125 9.91135 12.7919 8.86668 14 8.86668Z" fill="white"/>
<path d="M14 8.86667C13.7584 8.86667 13.5625 8.65773 13.5625 8.4V7.46667C13.5625 7.20893 13.7584 7 14 7C14.2416 7 14.4375 7.20893 14.4375 7.46667V8.4C14.4375 8.65773 14.2416 8.86667 14 8.86667Z" fill="white"/>
<path fill-rule="evenodd" clip-rule="evenodd" d="M20.125 13.5333C20.125 13.2756 20.3208 13.0667 20.5625 13.0667C20.8041 13.0667 21 13.2756 21 13.5333V14.406C21.0039 15.2716 20.4676 16.0343 19.6875 16.2727V20.5333C19.6875 20.7911 19.4916 21 19.25 21C19.0083 21 18.8125 20.7911 18.8125 20.5333V19.6H9.18753V20.5333C9.18753 20.7911 8.99165 21 8.75003 21C8.50841 21 8.31253 20.7911 8.31253 20.5333V16.254C7.53241 16.0157 6.99612 15.2529 7.00004 14.3873V11.6667C7.00004 11.4089 7.19592 11.2 7.43754 11.2H8.75003V10.1827C8.2269 9.98538 7.8766 9.45852 7.87504 8.86667V7.46667C7.87504 7.20893 8.07091 7 8.31253 7H10.0625C10.3041 7 10.5 7.20893 10.5 7.46667V8.86667C10.4985 9.45852 10.1482 9.98538 9.62503 10.1827V11.2H18.375V10.1827C17.8518 9.98538 17.5015 9.45852 17.5 8.86667V7.46667C17.5 7.20893 17.6959 7 17.9375 7H19.6875C19.9291 7 20.125 7.20893 20.125 7.46667V8.86667C20.1234 9.45852 19.7731 9.98538 19.25 10.1827V11.2H20.5625C20.8041 11.2 21 11.4089 21 11.6667C21 11.9244 20.8041 12.1333 20.5625 12.1333H7.87504V14.3873C7.83446 14.7942 8.04701 15.1818 8.39934 15.3434C8.75167 15.5051 9.16165 15.4032 9.41065 15.092C9.57676 14.8911 9.81578 14.776 10.0669 14.776C10.318 14.776 10.557 14.8911 10.7231 15.092C10.8947 15.2825 11.1317 15.3902 11.3794 15.3902C11.6271 15.3902 11.8641 15.2825 12.0356 15.092C12.2066 14.9002 12.4438 14.7917 12.6919 14.7917C12.94 14.7917 13.1772 14.9002 13.3481 15.092C13.5191 15.2838 13.7563 15.3923 14.0044 15.3923C14.2525 15.3923 14.4897 15.2838 14.6606 15.092C14.8316 14.9002 15.0688 14.7917 15.3169 14.7917C15.5649 14.7917 15.8022 14.9002 15.9731 15.092C16.1441 15.2838 16.3813 15.3923 16.6294 15.3923C16.8774 15.3923 17.1146 15.2838 17.2856 15.092C17.4517 14.8911 17.6907 14.776 17.9419 14.776C18.193 14.776 18.432 14.8911 18.5981 15.092C18.8489 15.3947 19.2537 15.4909 19.6012 15.3305C19.9487 15.1701 20.1601 14.7895 20.125 14.3873V13.5333ZM19.25 7.93333H18.375V8.86667C18.375 9.1244 18.5708 9.33333 18.8125 9.33333C19.0541 9.33333 19.25 9.1244 19.25 8.86667V7.93333ZM8.75003 7.93333H9.62503V8.86667C9.62503 9.1244 9.42915 9.33333 9.18753 9.33333C8.94591 9.33333 8.75003 9.1244 8.75003 8.86667V7.93333ZM9.18753 16.268V18.6667H18.8125V16.2493C18.4767 16.1634 18.1723 15.9734 17.9375 15.7033C17.6009 16.097 17.1245 16.3214 16.625 16.3214C16.1255 16.3214 15.6491 16.097 15.3125 15.7033C14.9803 16.1051 14.5022 16.3353 14 16.3353C13.4978 16.3353 13.0197 16.1051 12.6875 15.7033C12.3553 16.1051 11.8773 16.3353 11.375 16.3353C10.8728 16.3353 10.3947 16.1051 10.0625 15.7033C9.82857 15.9783 9.52448 16.1746 9.18753 16.268Z" fill="white"/>
</svg>
