<svg width="28" height="28" viewBox="0 0 28 28" fill="none" xmlns="http://www.w3.org/2000/svg">
<circle cx="14" cy="14" r="14" fill="#4DB7FE"/>
<path fill-rule="evenodd" clip-rule="evenodd" d="M18.7781 8.00001C18.263 8.00155 17.8045 8.34796 17.6328 8.86526H7.40614C7.18184 8.86526 7 9.05896 7 9.29789C7 9.53683 7.18184 9.73052 7.40614 9.73052H10.6553V11.5778C9.35066 12.5777 8.5927 14.1984 8.62923 15.91C8.66577 17.6216 9.49211 19.2039 10.838 20.1396C11.0264 20.271 11.2792 20.2148 11.4026 20.0141C11.5259 19.8134 11.4732 19.5442 11.2848 19.4128C9.53708 18.1949 8.94134 15.7636 9.90733 13.7913C10.8733 11.8189 13.0861 10.9484 15.0237 11.7785C16.9613 12.6087 17.992 14.8688 17.4069 17.0044C16.8218 19.1399 14.8117 20.4547 12.7591 20.0444C12.5348 20.0014 12.3202 20.1602 12.2798 20.3992C12.2395 20.6381 12.3886 20.8666 12.6129 20.9097C14.8624 21.3614 17.1039 20.0847 18.0003 17.841C18.8967 15.5973 18.2064 12.9915 16.3412 11.5778V9.73052H17.6328C17.8394 10.3532 18.4522 10.7113 19.0563 10.5623C19.6604 10.4134 20.0631 9.80489 19.9918 9.14876C19.9206 8.49264 19.3981 7.99815 18.7781 8.00001ZM15.5289 11.076C14.2418 10.4359 12.7546 10.4359 11.4675 11.076V9.73053H15.5289V11.076ZM18.372 9.29789C18.372 9.53682 18.5538 9.73052 18.7781 9.73052C18.8859 9.73052 18.9892 9.68494 19.0653 9.6038C19.1415 9.52267 19.1843 9.41263 19.1843 9.29789C19.1843 9.05895 19.0024 8.86526 18.7781 8.86526C18.5538 8.86526 18.372 9.05895 18.372 9.29789Z" fill="white"/>
<path d="M15.1228 13.1916C14.8985 13.1916 14.7167 13.3853 14.7167 13.6242V15.3547H12.2798V13.6242C12.2798 13.3853 12.098 13.1916 11.8737 13.1916C11.6494 13.1916 11.4675 13.3853 11.4675 13.6242V17.9505C11.4675 18.1894 11.6494 18.3831 11.8737 18.3831C12.098 18.3831 12.2798 18.1894 12.2798 17.9505V16.22H14.7167V17.9505C14.7167 18.1894 14.8985 18.3831 15.1228 18.3831C15.3471 18.3831 15.5289 18.1894 15.5289 17.9505V13.6242C15.5289 13.3853 15.3471 13.1916 15.1228 13.1916Z" fill="white"/>
</svg>
