<svg width="56" height="56" viewBox="0 0 56 56" fill="none" xmlns="http://www.w3.org/2000/svg">
<circle cx="28" cy="28" r="28" fill="#F0FAF7"/>
<path fill-rule="evenodd" clip-rule="evenodd" d="M19.6538 38H37.3462C38.8118 38 40 36.779 40 35.2727V20.7273C40 19.221 38.8118 18 37.3462 18H19.6538C18.1882 18 17 19.221 17 20.7273V35.2727C17 36.779 18.1882 38 19.6538 38ZM18.7692 20.7273C18.7692 20.2252 19.1653 19.8182 19.6538 19.8182H37.3462C37.8347 19.8182 38.2308 20.2252 38.2308 20.7273V35.2727C38.2308 35.7748 37.8347 36.1818 37.3462 36.1818H19.6538C19.1653 36.1818 18.7692 35.7748 18.7692 35.2727V20.7273Z" fill="black"/>
<path fill-rule="evenodd" clip-rule="evenodd" d="M30.2695 24.3636C30.2695 25.8699 31.4577 27.0909 32.9234 27.0909C33.6272 27.0909 34.3022 26.8036 34.7999 26.2921C35.2976 25.7806 35.5772 25.0869 35.5772 24.3636C35.5772 22.8574 34.3891 21.6364 32.9234 21.6364C31.4577 21.6364 30.2695 22.8574 30.2695 24.3636ZM32.0388 24.3636C32.0388 23.8615 32.4348 23.4545 32.9234 23.4545C33.4119 23.4545 33.808 23.8615 33.808 24.3636C33.808 24.8657 33.4119 25.2727 32.9234 25.2727C32.4348 25.2727 32.0388 24.8657 32.0388 24.3636Z" fill="black"/>
<path d="M19.6535 38C19.484 37.9996 19.3182 37.9491 19.1758 37.8546C18.766 37.583 18.6473 37.0219 18.9104 36.6L24.4216 27.8546C24.9075 27.083 25.7388 26.6148 26.6331 26.6091C27.5224 26.6088 28.3526 27.0661 28.8447 27.8273L34.5239 36.5909C34.7398 37.0046 34.6138 37.5192 34.233 37.7785C33.8522 38.0378 33.342 37.9565 33.0554 37.5909L27.3674 28.8364C27.2046 28.5824 26.9291 28.4289 26.6331 28.4273C26.3355 28.4309 26.0596 28.588 25.8989 28.8455L20.3966 37.5819C20.2342 37.842 19.9543 37.9995 19.6535 38Z" fill="black"/>
</svg>
