<svg width="56" height="56" viewBox="0 0 56 56" fill="none" xmlns="http://www.w3.org/2000/svg">
<circle cx="28" cy="28" r="28" fill="#FFEBEE"/>
<path fill-rule="evenodd" clip-rule="evenodd" d="M18 36.3334C18 37.2542 18.7459 38 19.6666 38H36.3334C37.2542 38 38 37.2542 38 36.3334V21.75C38 20.8292 37.2542 20.0833 36.3334 20.0833H34.6666V19.0416C34.6666 18.4667 34.1999 18 33.6251 18C33.0501 18 32.5832 18.4667 32.5832 19.0416V20.0833H30.9166V19.0416C30.9166 18.4667 30.4498 18 29.8749 18C29.3 18 28.8333 18.4667 28.8333 19.0416V20.0833H27.1667V19.0416C27.1667 18.4667 26.7 18 26.1251 18C25.55 18 25.0833 18.4667 25.0833 19.0416V20.0833H23.4167V19.0416C23.4167 18.4667 22.95 18 22.375 18C21.8001 18 21.3334 18.4667 21.3334 19.0416V20.0833H19.6666C18.7459 20.0833 18 20.8292 18 21.75V36.3334H18ZM21.0001 22.1666H21.3334V23.6249C21.3334 24.1999 21.8001 24.6667 22.375 24.6667C22.95 24.6667 23.4167 24.1999 23.4167 23.6249V22.1666H25.0833V23.6249C25.0833 24.1999 25.55 24.6667 26.1251 24.6667C26.7 24.6667 27.1667 24.1999 27.1667 23.6249V22.1666H28.8334V23.6249C28.8334 24.1999 29.3001 24.6667 29.875 24.6667C30.4499 24.6667 30.9167 24.1999 30.9167 23.6249V22.1666H32.5833V23.6249C32.5833 24.1999 33.0502 24.6667 33.6251 24.6667C34.2 24.6667 34.6667 24.1999 34.6667 23.6249V22.1666H35C35.5083 22.1666 35.9168 22.5752 35.9168 23.0834V27.4999C35.9168 28.0081 35.5083 28.4167 35 28.4167H21.0001C20.4917 28.4167 20.0833 28.0081 20.0833 27.4999V23.0834C20.0833 22.5752 20.4917 22.1666 21.0001 22.1666Z" fill="#010101"/>
</svg>
