<svg width="56" height="56" viewBox="0 0 56 56" fill="none" xmlns="http://www.w3.org/2000/svg">
<circle cx="28" cy="28" r="28" fill="#E9F2FF"/>
<path fill-rule="evenodd" clip-rule="evenodd" d="M35.3541 18.4542C35.9597 17.8486 36.94 17.8486 37.5456 18.4542C38.1512 19.0598 38.1512 20.0401 37.547 20.6457L35.1217 23.0709L35.5555 23.5047C36.378 24.3272 36.8315 25.423 36.8315 26.592C36.8315 27.7609 36.378 28.8567 35.5555 29.6792L29.6795 35.555C28.8569 36.3775 27.7612 36.831 26.5922 36.831C25.4232 36.831 24.3274 36.3775 23.5049 35.555L23.0711 35.1212L20.6458 37.5465C20.3429 37.8493 19.9472 38 19.55 38C19.1528 38 18.757 37.8493 18.4542 37.5465C17.8486 36.9409 17.8486 35.9606 18.4542 35.355L20.8796 32.9298L20.4458 32.496C19.6232 31.6735 19.1697 30.5763 19.1697 29.4088C19.1697 28.2412 19.6232 27.144 20.4458 26.3215L26.3218 20.4457C27.9668 18.8007 30.8513 18.8007 32.4964 20.4457L32.9302 20.8795L35.3541 18.4542ZM27.4879 33.3635L33.3639 27.4877C33.6006 27.2511 33.7316 26.9314 33.7316 26.592C33.7316 26.2525 33.6006 25.9328 33.3639 25.6962L32.9301 25.2624L31.9133 26.2793C31.6104 26.5821 31.2147 26.7328 30.8175 26.7328C30.4203 26.7328 30.0245 26.5821 29.7217 26.2793C29.1161 25.6737 29.1161 24.6934 29.7217 24.0878L30.7386 23.0709L30.3048 22.6372C30.0682 22.4005 29.7499 22.2696 29.4091 22.2696C29.0682 22.2696 28.7499 22.4005 28.5133 22.6372L22.6373 28.513C22.4007 28.7496 22.2697 29.0693 22.2697 29.4088C22.2697 29.7482 22.4007 30.0679 22.6373 30.3045L23.0711 30.7383L24.088 29.7214C24.3908 29.4186 24.7866 29.2679 25.1837 29.2679C25.5809 29.2679 25.9767 29.4186 26.2795 29.7214C26.8851 30.327 26.8851 31.3073 26.2795 31.9129L25.2626 32.9298L25.6964 33.3635C25.933 33.6016 26.2626 33.7199 26.5922 33.7199C26.9218 33.7199 27.2513 33.6002 27.4879 33.3635Z" fill="black"/>
</svg>
