<svg width="56" height="56" viewBox="0 0 56 56" fill="none" xmlns="http://www.w3.org/2000/svg">
<circle cx="28" cy="28" r="28" fill="#FFF4E4"/>
<path fill-rule="evenodd" clip-rule="evenodd" d="M35.4559 19H20.5671C19.1435 19 18 20.1776 18 21.6435V34.3565C18 35.8224 19.1435 37 20.5671 37H35.4326C36.8562 37 37.9997 35.8224 37.9997 34.3565V21.6435C38.023 20.1776 36.8562 19 35.4559 19ZM26.9613 21.4513C27.5448 21.4513 28.0115 21.9319 28.0115 22.5327C28.0115 23.1335 27.5448 23.6142 26.9613 23.6142C26.3779 23.6142 25.9112 23.1335 25.9112 22.5327C25.8878 21.9319 26.3779 21.4513 26.9613 21.4513ZM25.0477 22.5327C25.0477 21.9319 24.581 21.4513 23.9976 21.4513C23.4141 21.4513 22.9241 21.9319 22.9474 22.5327C22.9474 23.1335 23.4141 23.6142 23.9976 23.6142C24.581 23.6142 25.0477 23.1335 25.0477 22.5327ZM21.2438 21.4513C21.8272 21.4513 22.294 21.9319 22.294 22.5327C22.294 23.1335 21.8272 23.6142 21.2438 23.6142C20.6604 23.6142 20.1937 23.1335 20.1937 22.5327C20.1937 21.9319 20.6604 21.4513 21.2438 21.4513ZM35.4559 35.534C36.1094 35.534 36.6228 35.0053 36.6228 34.3324H36.5994V26.522H19.4002V34.3324C19.4002 35.0053 19.9136 35.534 20.5671 35.534H35.4559Z" fill="black"/>
</svg>
