<svg width="56" height="56" viewBox="0 0 56 56" fill="none" xmlns="http://www.w3.org/2000/svg">
<circle cx="28" cy="28" r="28" fill="#FFF4E4"/>
<path fill-rule="evenodd" clip-rule="evenodd" d="M39.5369 25.2017C39.3324 24.6347 38.8075 24.2195 38.1755 24.1294L32.0286 23.2508L29.3567 17.9183C29.0754 17.3584 28.4737 17 27.8122 17C27.1507 17 26.549 17.3584 26.2677 17.9183L23.5959 23.2508L17.4482 24.1294C16.8169 24.2195 16.292 24.6347 16.0882 25.2017C15.8852 25.7702 16.0388 26.3961 16.4847 26.8234L20.9897 31.1467L19.945 37.1442C19.8387 37.7481 20.1112 38.3542 20.6449 38.7076C20.938 38.9014 21.2828 39 21.6276 39C21.9111 39 22.1953 38.9333 22.453 38.8006L27.8122 36.0272L33.1722 38.8006C33.4298 38.9333 33.7141 39 33.9968 39C34.3416 39 34.6864 38.9014 34.9802 38.7076C35.514 38.3542 35.785 37.7481 35.6794 37.1442L34.634 31.1467L39.1405 26.8234C39.5857 26.3954 39.7385 25.7695 39.5369 25.2017Z" fill="black"/>
</svg>
