<svg width="56" height="56" viewBox="0 0 56 56" fill="none" xmlns="http://www.w3.org/2000/svg">
<circle cx="28" cy="28" r="28" fill="#E9F2FF"/>
<path fill-rule="evenodd" clip-rule="evenodd" d="M38.422 25.594L31.957 19.059C30.628 17.729 28.87 17 27 17C25.13 17 23.372 17.729 22.05 19.051C20.634 20.465 19.923 22.407 20.023 24.365C19.361 25.45 19 26.695 19 27.999C19 29.869 19.729 31.627 21.051 32.949L24.104 35.933L27.586 39.413C27.977 39.805 28.488 40 29 40C29.512 40 30.023 39.805 30.414 39.414L37.414 32.414C38.192 31.636 38.196 30.376 37.422 29.594L37.329 29.5L38.414 28.414C39.192 27.636 39.196 26.376 38.422 25.594ZM29 38L25.502 34.503L22.465 31.535C20.512 29.582 20.512 26.416 22.465 24.465C23.441 23.488 24.721 23 26 23C27.279 23 28.559 23.488 29.535 24.465L36 31L29 38ZM26 21C27.87 21 29.628 21.729 30.957 23.059L35.922 28.078L37 27L30.535 20.465C29.559 19.488 28.279 19 27 19C25.721 19 24.441 19.488 23.465 20.464C23.014 20.915 22.676 21.432 22.435 21.982C23.503 21.347 24.724 21 26 21Z" fill="black"/>
<path fill-rule="evenodd" clip-rule="evenodd" d="M23.5 28C23.5 26.621 24.622 25.499 26 25.499C27.378 25.499 28.5 26.621 28.5 28C28.5 29.378 27.378 30.499 26 30.499C24.622 30.499 23.5 29.378 23.5 28ZM27.5 28C27.5 27.171 26.83 26.499 26 26.499C25.17 26.499 24.5 27.171 24.5 28C24.5 28.83 25.17 29.499 26 29.499C26.83 29.499 27.5 28.83 27.5 28Z" fill="black"/>
</svg>
